<svg xmlns="http://www.w3.org/2000/svg" width="27.947" height="24.017" viewBox="0 0 27.947 24.017"><path d="M26.855,54.558a1.092,1.092,0,0,0-1.092,1.092,2.186,2.186,0,0,1-2.183,2.183H15.247l-2.51-3.256L20.66,44.5l5.353,6.386.033.038h0l0,0a1.088,1.088,0,0,0,.768.353h.01a1.1,1.1,0,0,0,.233-.019h0l.01,0h0l.009,0h0l.008,0h.006l.007,0,.006,0,.007,0,.006,0,.007,0,.006,0,.006,0,.007,0,.006,0,.005,0,.008,0h0l.008,0,0,0,.008,0h0l.009,0h0l.009,0h0l.01,0h0l.011,0h0l.012,0a1.086,1.086,0,0,0,.142-.071h0l.009-.006A1.1,1.1,0,0,0,27.586,51l0,0,0,0a1.089,1.089,0,0,0,.355-.771v-.006s0,0,0,0v-.011h0c0-.006,0-.012,0-.017V40.367A4.372,4.372,0,0,0,23.58,36H4.367A4.372,4.372,0,0,0,0,40.367V55.65a4.372,4.372,0,0,0,4.367,4.367H23.58a4.372,4.372,0,0,0,4.367-4.367A1.092,1.092,0,0,0,26.855,54.558ZM4.367,57.833A2.186,2.186,0,0,1,2.183,55.65V40.367a2.186,2.186,0,0,1,2.183-2.183H23.58a2.186,2.186,0,0,1,2.183,2.183V47.19l-4.294-5.123a1.092,1.092,0,0,0-1.695.027l-8.412,10.7-2.856-3.7a1.092,1.092,0,0,0-.865-.425h0a1.092,1.092,0,0,0-.865.426l-2.4,3.123A1.092,1.092,0,1,0,6.1,53.544l1.538-2,4.848,6.289Z" transform="translate(0 -36)" fill="#32438e"/></svg>