<svg xmlns="http://www.w3.org/2000/svg" width="24" height="24" viewBox="0 0 24 24">
    <path d="M19.969,0A4.037,4.037,0,0,0,16.04,4.939L7.117,9.417a4.035,4.035,0,1,0-.01,5.2l1.514.771a.938.938,0,0,0,.85-1.672L7.954,12.94a4.054,4.054,0,0,0,0-1.845l8.918-4.476A4.032,4.032,0,1,0,19.969,0ZM4.031,14.168A2.158,2.158,0,1,1,6.187,12.01,2.16,2.16,0,0,1,4.031,14.168ZM19.969,6.193a2.158,2.158,0,1,1,2.156-2.158A2.16,2.16,0,0,1,19.969,6.193Z"
          fill="#0b386f"/>
    <path d="M271.6,335.951a4.028,4.028,0,0,0-3.1,1.46l-3.139-1.561a.938.938,0,1,0-.836,1.68l3.144,1.564a4.035,4.035,0,1,0,3.935-3.143Zm0,6.193a2.158,2.158,0,0,1-1.991-2.991.951.951,0,0,0,.114-.231,2.158,2.158,0,1,1,1.877,3.222Z"
          transform="translate(-251.632 -320.021)" fill="#0b386f"/>
</svg>