<svg xmlns="http://www.w3.org/2000/svg" width="19.219" height="24" viewBox="0 0 19.219 24"><path d="M19.719,9.6a10.247,10.247,0,0,1-1.987,5.978.938.938,0,0,1-1.547-1.059A8.457,8.457,0,0,0,17.843,9.6a7.734,7.734,0,0,0-15.468,0c0,3.392,2.081,5.667,4.486,8.3a38.617,38.617,0,0,1,3.248,3.892A38.647,38.647,0,0,1,13.357,17.9l.145-.158a.937.937,0,1,1,1.385,1.264l-.145.159a32.02,32.02,0,0,0-3.559,4.4A.937.937,0,0,1,10.39,24H9.828a.937.937,0,0,1-.792-.437,32.008,32.008,0,0,0-3.559-4.4,28.543,28.543,0,0,1-3.391-4.207A10.041,10.041,0,0,1,.5,9.6,9.609,9.609,0,0,1,16.9,2.811,9.546,9.546,0,0,1,19.719,9.6ZM9.172,12.625V8.963a2.578,2.578,0,1,1,1.875,0v3.661q.147-.1.3-.2c1.378-.976,1.561-1.459,1.579-1.517a.937.937,0,0,1,1.875.019c0,.9-.719,1.84-2.264,2.953a20.33,20.33,0,0,1-1.977,1.247.937.937,0,0,1-.892,0,20.345,20.345,0,0,1-1.977-1.247c-1.545-1.113-2.264-2.052-2.264-2.953A.938.938,0,0,1,7.3,10.9c.018.057.2.541,1.579,1.517Q9.025,12.526,9.172,12.625Zm.234-6.062a.7.7,0,1,0,.7-.7A.7.7,0,0,0,9.406,6.563Zm0,0" transform="translate(-0.5)" fill="#b6b6b6"/></svg>