<svg id="icon" xmlns="http://www.w3.org/2000/svg" width="14" height="14" viewBox="0 0 14.616 14.616">
  <path d="M81.567,118.621l.055,0,3.236-.312a.568.568,0,0,0,.513-.565v-4.173a.568.568,0,0,0-.86-.487c-.08.048-1.985,1.222-3.467,4.752a.568.568,0,0,0,.523.788Zm2.669-3.8v2.407l-1.742.168A10.817,10.817,0,0,1,84.236,114.818Z" transform="translate(-78.511 -109.739)" fill="#08396f"/>
  <path d="M14.5,9.305a.572.572,0,0,0-.5-.223l-5.066.4V8.306l4.288-.257a.571.571,0,0,0,.529-.663,10.242,10.242,0,0,0-.9-2.585A12.125,12.125,0,0,0,8.77.1.571.571,0,0,0,8.45,0H8.364a.571.571,0,0,0-.571.571v9l-7.267.568A.571.571,0,0,0,0,10.705v1.47a2.444,2.444,0,0,0,2.441,2.441h7.836a.571.571,0,1,0,0-1.142H2.441a1.3,1.3,0,0,1-1.3-1.3v-.942L13.078,10.3a5.5,5.5,0,0,1-.845,1.107.571.571,0,0,0,.038.807.6.6,0,0,0,.085.064.569.569,0,0,0,.722-.1,6.293,6.293,0,0,0,1.5-2.33A.571.571,0,0,0,14.5,9.305ZM8.935,1.644a11.028,11.028,0,0,1,2.873,3.621,10.559,10.559,0,0,1,.663,1.685l-3.536.212Z" transform="translate(0 0)" fill="#08396f"/>
</svg>
