<svg id="icon" xmlns="http://www.w3.org/2000/svg" width="14" height="14" viewBox="0 0 14.616 14.616"><path d="M81.567 118.621h.055l3.236-.312a.568.568 0 00.513-.565v-4.173a.568.568 0 00-.86-.487c-.08.048-1.985 1.222-3.467 4.752a.568.568 0 00.523.788zm2.669-3.8v2.407l-1.742.168a10.817 10.817 0 011.742-2.578z" transform="translate(-78.511 -109.739)" fill="#08396f"/><path d="M14.5 9.305a.572.572 0 00-.5-.223l-5.066.4V8.306l4.288-.257a.571.571 0 00.529-.663 10.242 10.242 0 00-.9-2.585A12.125 12.125 0 008.77.1a.571.571 0 00-.32-.1h-.086a.571.571 0 00-.571.571v9l-7.267.568a.571.571 0 00-.526.566v1.47a2.444 2.444 0 002.441 2.441h7.836a.571.571 0 100-1.142H2.441a1.3 1.3 0 01-1.3-1.3v-.942l11.937-.932a5.5 5.5 0 01-.845 1.107.571.571 0 00.038.807.6.6 0 00.085.064.569.569 0 00.722-.1 6.293 6.293 0 001.5-2.33.571.571 0 00-.078-.543zM8.935 1.644a11.028 11.028 0 012.873 3.621 10.559 10.559 0 01.663 1.685l-3.536.212z" fill="#08396f"/></svg>