<svg xmlns="http://www.w3.org/2000/svg" width="23.997" height="24" viewBox="0 0 23.997 24">
    <path d="M23.093,19.5H1.909V16.548a1.877,1.877,0,0,1,1.875-1.875h16.5a1.877,1.877,0,0,1,1.875,1.875.937.937,0,1,0,1.875,0,3.75,3.75,0,0,0-1.784-3.191,3.713,3.713,0,0,0-.044-.444V.937a.937.937,0,1,0-1.875,0V3.1A51.46,51.46,0,0,0,11.892,2.2a45.023,45.023,0,0,0-8.061.888V.937a.937.937,0,1,0-1.875,0V13.276A3.752,3.752,0,0,0,.034,16.548v3.89a.937.937,0,0,0,.937.937h.937v1.687a.937.937,0,0,0,1.875,0V21.375h16.5v1.687a.937.937,0,0,0,1.875,0V21.375h.937a.937.937,0,0,0,0-1.875ZM4.02,12.8a2.562,2.562,0,0,1,.835-1.038,4.413,4.413,0,0,1,2.678-.837,4.413,4.413,0,0,1,2.678.837,2.561,2.561,0,0,1,.835,1.038Zm9.186,0a2.562,2.562,0,0,1,.835-1.038,4.413,4.413,0,0,1,2.678-.837,4.413,4.413,0,0,1,2.678.837,2.561,2.561,0,0,1,.835,1.038ZM3.83,5l.059-.011a44.473,44.473,0,0,1,8-.916A51.583,51.583,0,0,1,20.285,5L20.328,5V10.12a6.361,6.361,0,0,0-3.609-1.071A6.293,6.293,0,0,0,12.9,10.271a4.885,4.885,0,0,0-.776.737,4.883,4.883,0,0,0-.776-.737A6.293,6.293,0,0,0,7.533,9.049a6.329,6.329,0,0,0-3.7,1.139V5Z"
          transform="translate(-0.034)" fill="#0d376f"/>
</svg>