<svg xmlns="http://www.w3.org/2000/svg" width="24.002" height="24.002" viewBox="0 0 24.002 24.002"><path d="M16.924,0a2.1,2.1,0,0,0,.526.134,3.75,3.75,0,0,1,2.756,3.575q.011,5.485,0,10.967a.939.939,0,1,1-1.875-.008V3.91a1.885,1.885,0,0,0-2.024-2.035H7.729a1.881,1.881,0,0,0-2.01,2q0,9,0,18c0,.192.026.259.245.258q6.07-.013,12.139,0c.2,0,.239-.055.234-.244-.011-.8-.005-1.594,0-2.391a.943.943,0,1,1,1.877.01c0,.789.007,1.578,0,2.367,0,.194.029.262.246.258.8-.016,1.609-.007,2.414-.007a1,1,0,0,1,1.142.75v.375a.783.783,0,0,1-.75.75H.75a.783.783,0,0,1-.75-.75v-.375a.906.906,0,0,1,.989-.819c.773-.011,1.547,0,2.319,0,.481,0,.464.04.464-.453V3.843a3.771,3.771,0,0,1,.949-2.6A3.359,3.359,0,0,1,6.9.031.241.241,0,0,0,7.032,0Z" fill="#0b386f"/><path d="M313.789,215.82c0,.312,0,.624,0,.938a.938.938,0,1,1-1.875-.005q-.008-.938,0-1.875a.936.936,0,1,1,1.872,0C313.794,215.2,313.789,215.508,313.789,215.82Z" transform="translate(-297.288 -203.91)" fill="#0b386f"/></svg>