<svg width="25" height="24" viewBox="0 0 25 24" fill="none" xmlns="http://www.w3.org/2000/svg">
    <path fill-rule="evenodd" clip-rule="evenodd" d="M17.45 0.134003C17.2695 0.112274 17.0928 0.0672302 16.9241 0H7.03198C6.99194 0.0227509 6.94604 0.0335083 6.8999 0.0310059C6.04517 0.140472 5.26489 0.574402 4.72095 1.243C4.08667 1.95805 3.74731 2.88737 3.77197 3.843V21.604C3.77197 21.8485 3.77612 21.9619 3.72168 22.0141C3.6665 22.0672 3.55054 22.057 3.30811 22.057C3.05078 22.057 2.79321 22.0558 2.53564 22.0546C2.02026 22.0521 1.50439 22.0497 0.989014 22.057C0.870117 22.0456 0.750488 22.0577 0.63623 22.0927C0.522217 22.1277 0.41626 22.1849 0.324463 22.261C0.232422 22.3371 0.156494 22.4306 0.10083 22.5362C0.045166 22.6417 0.0109863 22.7572 0 22.876V23.251C0.00805664 23.4473 0.0898438 23.6334 0.22876 23.7723C0.367676 23.9113 0.553711 23.9929 0.75 24.001H23.2661C23.4624 23.9929 23.6484 23.9113 23.7874 23.7723C23.9263 23.6334 24.0078 23.4473 24.0161 23.251V22.876C23.9563 22.6295 23.8052 22.4148 23.593 22.2756C23.3811 22.1363 23.124 22.0828 22.874 22.126L22.2341 22.1247C21.6414 22.123 21.0481 22.1212 20.46 22.133C20.2429 22.137 20.2141 22.069 20.2141 21.875C20.2188 21.349 20.217 20.823 20.2156 20.297C20.2148 20.034 20.2141 19.771 20.2141 19.508C20.2275 19.3771 20.2134 19.2448 20.1729 19.1197C20.1321 18.9946 20.0657 18.8793 19.9778 18.7814C19.9172 18.714 19.8477 18.6559 19.771 18.6086C19.7363 18.5871 19.7002 18.5679 19.6626 18.551C19.5425 18.4971 19.4126 18.4688 19.281 18.4681C19.1494 18.4674 19.019 18.4943 18.8987 18.5469C18.7781 18.5996 18.6697 18.6769 18.5808 18.7739C18.4919 18.8709 18.4243 18.9855 18.3823 19.1102C18.3403 19.2349 18.325 19.367 18.3369 19.498C18.332 20.295 18.3259 21.089 18.3369 21.889C18.342 22.078 18.303 22.133 18.103 22.133C14.0569 22.1243 10.0107 22.1243 5.96411 22.133C5.74512 22.134 5.71899 22.067 5.71899 21.875V3.875C5.70142 3.60692 5.74121 3.33817 5.83618 3.08684C5.93115 2.83549 6.07886 2.60741 6.26929 2.41791C6.45972 2.22841 6.68848 2.08191 6.94019 1.98827C7.19214 1.89461 7.46094 1.85599 7.729 1.875H16.3069C16.5791 1.85394 16.8525 1.89223 17.1084 1.9872C17.3643 2.08218 17.5964 2.2316 17.7888 2.42509C17.9814 2.61861 18.1296 2.85161 18.2231 3.10799C18.3167 3.36436 18.3535 3.638 18.3311 3.91V14.668C18.3232 14.7955 18.3416 14.9233 18.385 15.0435C18.4282 15.1637 18.4958 15.2738 18.583 15.367C18.6704 15.4602 18.7759 15.5346 18.8931 15.5857C19.0103 15.6367 19.1365 15.6633 19.2642 15.6639C19.3921 15.6644 19.5186 15.6389 19.6362 15.5889C19.7537 15.5388 19.8599 15.4653 19.948 15.3728C20.0361 15.2803 20.1045 15.1708 20.1489 15.051C20.1931 14.9312 20.2126 14.8036 20.2061 14.676C20.2134 11.0213 20.2134 7.36566 20.2061 3.709C20.197 2.89467 19.9233 2.10536 19.4263 1.46037C18.929 0.815399 18.2354 0.349823 17.45 0.134003ZM16.501 12.848V11.91L16.502 11.6487C16.5029 11.4246 16.5039 11.1999 16.498 10.968C16.498 10.7198 16.3994 10.4817 16.2239 10.3061C16.0483 10.1306 15.8103 10.032 15.562 10.032C15.3137 10.032 15.0757 10.1306 14.9001 10.3061C14.7246 10.4817 14.626 10.7198 14.626 10.968C14.6206 11.5927 14.6206 12.2177 14.626 12.843C14.6216 12.9687 14.6426 13.0939 14.6875 13.2114C14.7324 13.3288 14.8005 13.436 14.8877 13.5266C14.9438 13.585 15.0073 13.6357 15.0762 13.6776C15.1143 13.7007 15.1541 13.7211 15.1951 13.7387C15.3108 13.7881 15.4351 13.8137 15.5608 13.814C15.6382 13.8142 15.7151 13.8049 15.7896 13.7863C15.8364 13.7747 15.8823 13.7594 15.927 13.7406C16.043 13.6919 16.1479 13.6203 16.2356 13.5302C16.3232 13.4401 16.3921 13.3333 16.4375 13.216C16.4832 13.0989 16.5046 12.9737 16.501 12.848Z" fill="#0B386F"/>
</svg>