<svg width="25" height="24" viewBox="0 0 25 24" fill="none" xmlns="http://www.w3.org/2000/svg">
    <path fill-rule="evenodd" clip-rule="evenodd" d="M13.373 10.865C16.9004 12.8033 20.2439 15.0589 23.3621 17.604L23.3669 17.6C23.6536 17.8473 23.8579 18.1763 23.9521 18.5429C24.0466 18.9095 24.0268 19.2962 23.8953 19.6512C23.7637 20.0062 23.5268 20.3125 23.2163 20.5291C22.9058 20.7457 22.5366 20.8622 22.158 20.863H22.1269C20.8559 20.842 18.4409 20.315 14.1269 17.921C13.9553 17.8324 13.8169 17.6909 13.7319 17.5175C13.647 17.3441 13.6199 17.1479 13.655 16.958C13.6831 16.5336 13.5923 16.1098 13.3931 15.734C9.91405 17.8047 6.25268 19.5527 2.45507 20.956C2.09447 21.0773 1.70531 21.0849 1.34008 20.9779C0.975089 20.8708 0.651603 20.6543 0.413566 20.3576C0.175529 20.0608 0.0341712 19.6982 0.00902476 19.3186C-0.0163659 18.939 0.075431 18.5607 0.271964 18.235C0.938956 17.144 2.62401 15.32 6.86108 12.831C7.02514 12.7277 7.21825 12.6801 7.41161 12.6954C7.60497 12.7107 7.78808 12.7881 7.93407 12.916C8.29101 13.1603 8.70971 13.2989 9.14208 13.316C9.10204 9.3481 9.43871 5.38537 10.147 1.48101C10.2239 1.10759 10.4141 0.766925 10.6914 0.505275C10.9687 0.243633 11.3198 0.0736879 11.697 0.0185274C12.0745 -0.0366255 12.4595 0.0256761 12.8 0.196971C13.1406 0.368266 13.4204 0.640262 13.6011 0.976001C14.5061 2.665 14.949 5.339 14.956 9.151C14.9612 9.34442 14.904 9.53439 14.7934 9.6931C14.6829 9.85181 14.5242 9.97093 14.3411 10.033C13.9475 10.2154 13.6125 10.5034 13.373 10.865ZM7.33105 14.73C3.55004 17.016 2.28905 18.555 1.89989 19.166C4.72558 18.1212 7.47118 16.8716 10.115 15.427C10.0203 15.3444 9.9309 15.2555 9.84789 15.161C8.98485 15.2721 8.10815 15.122 7.33105 14.73ZM11.4409 14.0879C11.5952 14.191 11.7764 14.246 11.9619 14.246H11.9641C12.2124 14.2452 12.4502 14.1461 12.6257 13.9703C12.801 13.7945 12.8996 13.5563 12.8999 13.308C12.8999 13.1225 12.845 12.9411 12.7419 12.7869C12.6389 12.6326 12.4924 12.5124 12.321 12.4414C12.1496 12.3704 11.9609 12.3518 11.779 12.388C11.5972 12.4242 11.4299 12.5136 11.2988 12.6447C11.1675 12.7759 11.0781 12.9431 11.042 13.125C11.0059 13.307 11.0244 13.4956 11.0955 13.667C11.1665 13.8384 11.2866 13.9849 11.4409 14.0879ZM11.062 10.64C11.1772 10.601 11.2947 10.5696 11.4141 10.546L11.416 10.549C11.7602 9.74575 12.3369 9.06385 13.072 8.59101C13.03 5.475 12.6599 3.229 11.9719 1.908C11.4458 4.79112 11.1416 7.71035 11.062 10.64ZM14.6299 14.195C15.1514 14.8742 15.4617 15.6918 15.522 16.546L15.5239 16.556C19.428 18.656 21.3811 18.966 22.1001 18.99C19.7722 17.0899 17.3091 15.362 14.73 13.82C14.7136 13.9045 14.6934 13.9881 14.6694 14.0706C14.6572 14.1124 14.644 14.1538 14.6299 14.195ZM2.208 13.83H2.16698C2.0432 13.8254 1.92187 13.7963 1.80932 13.7446C1.76952 13.7263 1.73119 13.7052 1.69433 13.6817C1.6726 13.6677 1.6516 13.6528 1.6311 13.6371C1.58837 13.6044 1.54858 13.568 1.51195 13.5283C1.42797 13.4373 1.36278 13.3306 1.3203 13.2144C1.27782 13.0982 1.25854 12.9747 1.26391 12.851C1.34057 11.0647 1.8662 9.32648 2.79272 7.79722C3.71899 6.26797 5.0161 4.99704 6.56396 4.102C6.6704 4.03489 6.78954 3.98989 6.91381 3.96967C7.03808 3.94945 7.16503 3.95443 7.28735 3.98429C7.36156 4.00243 7.4331 4.02951 7.50048 4.06482C7.54418 4.08768 7.58593 4.11399 7.62572 4.14357C7.72655 4.2188 7.81127 4.31356 7.87499 4.42222C7.93847 4.53089 7.97973 4.65123 7.99584 4.77608C7.99877 4.79749 8.00072 4.81896 8.00194 4.84045C8.00292 4.85594 8.00341 4.87144 8.00341 4.88694C8.0039 4.93329 8.00097 4.97962 7.99462 5.02552C7.98876 5.06713 7.98022 5.10839 7.96899 5.14903C7.93505 5.27029 7.87719 5.38351 7.79858 5.48194C7.72021 5.58037 7.62279 5.66201 7.51195 5.722C6.23681 6.45959 5.16845 7.5067 4.40502 8.76655C3.64184 10.0264 3.20849 11.4583 3.14501 12.93C3.135 13.1719 3.03197 13.4005 2.85717 13.5682C2.68261 13.7359 2.45019 13.8297 2.208 13.83ZM19.646 9.05146C18.9536 7.81094 17.9709 6.7567 16.782 5.979C16.5823 5.83868 16.4451 5.62609 16.3994 5.38628C16.3538 5.14647 16.4033 4.89831 16.5373 4.6944C16.6716 4.49049 16.8799 4.34686 17.1182 4.29396C17.3564 4.24105 17.6062 4.28303 17.814 4.411C19.2319 5.34373 20.4106 6.59678 21.2549 8.069C22.1199 9.59222 22.594 11.3059 22.635 13.057C22.6409 13.3059 22.5478 13.5469 22.376 13.7271C22.2041 13.9074 21.9678 14.012 21.719 14.018H21.696C21.4512 14.0178 21.2158 13.9219 21.0408 13.7508C20.8655 13.5797 20.7639 13.3469 20.758 13.102C20.72 11.6818 20.3386 10.292 19.646 9.05146ZM16.0669 21.105C14.7629 21.7944 13.3064 22.144 11.8315 22.1214C10.3567 22.0989 8.91137 21.705 7.6289 20.976C7.52148 20.9119 7.40209 20.8699 7.27807 20.8526C7.19775 20.8414 7.11669 20.8407 7.03661 20.8503C6.99291 20.8555 6.94945 20.8639 6.90673 20.8753C6.78564 20.9075 6.67211 20.9636 6.57323 21.0404C6.47411 21.1171 6.39159 21.2128 6.33007 21.322C6.26855 21.4311 6.22973 21.5515 6.21532 21.676C6.20116 21.8004 6.21191 21.9264 6.24706 22.0466C6.26366 22.1032 6.28539 22.1579 6.31225 22.2101C6.34228 22.2688 6.37841 22.3244 6.4204 22.3759C6.4995 22.473 6.5974 22.5532 6.708 22.612C8.26391 23.4951 10.0173 23.972 11.8064 23.9988C13.5955 24.0255 15.3623 23.6012 16.9441 22.765C17.0561 22.7092 17.156 22.6316 17.2378 22.5366C17.2705 22.4986 17.3 22.4582 17.3262 22.4157C17.3652 22.352 17.3967 22.2837 17.4197 22.2121C17.4353 22.164 17.4468 22.1147 17.4543 22.0649C17.4609 22.022 17.4646 21.9786 17.4651 21.9352C17.4653 21.9043 17.4641 21.8733 17.4614 21.8424C17.4504 21.7176 17.4148 21.5963 17.3562 21.4855C17.2978 21.3748 17.2178 21.2768 17.1208 21.1975C17.0237 21.1182 16.9119 21.059 16.7917 21.0235C16.6716 20.9881 16.5456 20.977 16.4211 20.991C16.3667 20.9971 16.313 21.008 16.2607 21.0234C16.1934 21.0432 16.1284 21.0705 16.0669 21.105Z" fill="#0F366F"/>
</svg>