<svg xmlns="http://www.w3.org/2000/svg" width="24.004" height="24" viewBox="0 0 24.004 24"><g transform="translate(0 0)"><path d="M349.518,92.613a8.792,8.792,0,0,1,3.976,7.123.939.939,0,0,0,.938.916h.023a.939.939,0,0,0,.916-.961,10.607,10.607,0,0,0-1.38-4.988,10.825,10.825,0,0,0-3.441-3.658.939.939,0,0,0-1.032,1.568Z" transform="translate(-332.736 -86.634)" fill="#0f366f"/><path d="M27.926,94.743h.041a.939.939,0,0,0,.937-.9,8.763,8.763,0,0,1,4.367-7.208.939.939,0,1,0-.948-1.62,10.632,10.632,0,0,0-5.3,8.749A.939.939,0,0,0,27.926,94.743Z" transform="translate(-25.759 -80.913)" fill="#0f366f"/><path d="M142.818,445.19a8.775,8.775,0,0,1-8.438-.129.939.939,0,1,0-.921,1.636,10.652,10.652,0,0,0,10.236.153.939.939,0,1,0-.877-1.66Z" transform="translate(-126.751 -424.085)" fill="#0f366f"/><path d="M23.362,17.648a66.261,66.261,0,0,0-9.989-6.739,2.343,2.343,0,0,1,.968-.832.906.906,0,0,0,.615-.882c-.007-3.812-.45-6.486-1.355-8.175a1.857,1.857,0,0,0-3.454.505A62.771,62.771,0,0,0,9.142,13.36a2.3,2.3,0,0,1-1.208-.4.9.9,0,0,0-1.073-.085C2.624,15.364.939,17.188.272,18.279A1.858,1.858,0,0,0,2.455,21a66.35,66.35,0,0,0,10.938-5.222,2.29,2.29,0,0,1,.262,1.224.9.9,0,0,0,.472.963c4.314,2.394,6.729,2.921,8,2.942h.031a1.857,1.857,0,0,0,1.209-3.263ZM1.9,19.21c.389-.611,1.65-2.15,5.431-4.436a4.355,4.355,0,0,0,2.517.431,2.834,2.834,0,0,0,.267.266A61.9,61.9,0,0,1,1.9,19.21Zm10.062-4.92a.938.938,0,1,1,.938-.938A.939.939,0,0,1,11.964,14.29Zm-.548-3.7a2.789,2.789,0,0,0-.352.094,57.3,57.3,0,0,1,.91-8.732c.688,1.321,1.058,3.567,1.1,6.683A4.38,4.38,0,0,0,11.416,10.593Zm4.108,6a4.366,4.366,0,0,0-.892-2.351,2.792,2.792,0,0,0,.1-.375A61.835,61.835,0,0,1,22.1,19.034C21.381,19.01,19.428,18.7,15.524,16.6Z" transform="translate(0 -0.044)" fill="#0f366f"/></g></svg>