<svg xmlns="http://www.w3.org/2000/svg" xmlns:xlink="http://www.w3.org/1999/xlink" width="71.368" height="69" viewBox="0 0 71.368 69"><defs><filter id="a" x="0" y="0" width="71.368" height="69" filterUnits="userSpaceOnUse"><feOffset dy="5" input="SourceAlpha"/><feGaussianBlur stdDeviation="7.5" result="b"/><feFlood flood-color="#fff" flood-opacity="0.161"/><feComposite operator="in" in2="b"/><feComposite in="SourceGraphic"/></filter></defs><g transform="matrix(1, 0, 0, 1, 0, 0)" filter="url(#a)"><path d="M24.285,1.88A6.923,6.923,0,0,0,19.261,0a6.935,6.935,0,0,0-5.6,2.762c-.165.21-.314.419-.448.624-.129-.2-.272-.409-.432-.616A6.923,6.923,0,0,0,7.107,0,6.923,6.923,0,0,0,2.083,1.88,8.117,8.117,0,0,0,0,7.862c0,2.516,1.472,5.535,4.374,8.973a48.341,48.341,0,0,0,6.71,6.443,3.415,3.415,0,0,0,4.2,0c.6-.465,1.82-1.454,3.312-2.868.413-.391,3.367-3.594,3.57-3.84,2.828-3.412,4.2-6.26,4.2-8.708A8.117,8.117,0,0,0,24.285,1.88Zm0,0" transform="translate(22.5 17.5)" fill="#fff"/></g></svg>