<svg xmlns="http://www.w3.org/2000/svg" width="26.368" height="24" viewBox="0 0 26.368 24">
    <path d="M24.285,1.88A6.923,6.923,0,0,0,19.261,0a6.935,6.935,0,0,0-5.6,2.762c-.165.21-.314.419-.448.624-.129-.2-.272-.409-.432-.616A6.923,6.923,0,0,0,7.107,0,6.923,6.923,0,0,0,2.083,1.88,8.117,8.117,0,0,0,0,7.862c0,2.516,1.472,5.535,4.374,8.973a48.341,48.341,0,0,0,6.71,6.443,3.415,3.415,0,0,0,4.2,0c.6-.465,1.82-1.454,3.312-2.868a1.03,1.03,0,1,0-1.417-1.5c-1.429,1.353-2.593,2.3-3.16,2.738a1.356,1.356,0,0,1-1.669,0,46.125,46.125,0,0,1-6.4-6.146C3.4,12.493,2.06,9.85,2.06,7.862c0-4.8,2.745-5.8,5.047-5.8,3.96,0,5.036,3.8,5.081,3.972,0,.005,0,.01,0,.015.007.024.014.047.022.07l.011.029c.009.022.018.044.028.065l.013.027c.011.022.023.043.036.064l.013.021c.015.023.031.046.047.068l.008.01a1.027,1.027,0,0,0,1.7-.11l0,0c.014-.024.027-.049.039-.074l.011-.024q.013-.028.024-.058c.006-.016.012-.032.017-.048s.005-.014.008-.022a6.931,6.931,0,0,1,1.143-2.076A4.87,4.87,0,0,1,19.261,2.06c2.3,0,5.047,1.007,5.047,5.8,0,1.921-1.255,4.409-3.729,7.394a1.03,1.03,0,1,0,1.586,1.314c2.828-3.412,4.2-6.26,4.2-8.708A8.117,8.117,0,0,0,24.285,1.88Zm0,0"
          fill="#fff"/>
</svg>