<svg width="27" height="25" viewBox="0 0 27 25" fill="none" xmlns="http://www.w3.org/2000/svg">
    <path d="M24.3025 1.88547C23.6323 1.25364 22.8427 0.761917 21.98 0.439098C21.1173 0.116279 20.1989 -0.0311417 19.2785 0.00547169C18.1942 -0.00403858 17.1227 0.240882 16.1501 0.720562C15.1775 1.20024 14.331 1.90131 13.6785 2.76747C13.5135 2.97747 13.3645 3.18647 13.2305 3.39147C13.1015 3.19147 12.9585 2.98247 12.7985 2.77547C12.1402 1.89694 11.2823 1.18758 10.2957 0.705949C9.30915 0.224316 8.22219 -0.0157825 7.12454 0.00547169C6.20417 -0.0311417 5.28574 0.116279 4.42305 0.439098C3.56037 0.761917 2.77078 1.25364 2.10054 1.88547C1.37009 2.69204 0.809276 3.63725 0.451437 4.6649C0.0935978 5.69255 -0.0539582 6.78165 0.0175414 7.86747C0.0175414 10.3835 1.48954 13.4025 4.39154 16.8405C6.41588 19.1989 8.66295 21.3565 11.1015 23.2835C11.7016 23.7514 12.4407 24.0055 13.2015 24.0055C13.9624 24.0055 14.7015 23.7514 15.3015 23.2835C15.9015 22.8185 17.1215 21.8295 18.6135 20.4155C19.0265 20.0245 21.9805 16.8215 22.1835 16.5755C25.0115 13.1635 26.3835 10.3155 26.3835 7.86747C26.4553 6.78179 26.3081 5.69277 25.9506 4.66512C25.5931 3.63748 25.0326 2.6922 24.3025 1.88547V1.88547Z" fill="white"/>
</svg>
