<svg xmlns="http://www.w3.org/2000/svg" width="20" height="20" viewBox="0 0 20 20">
    <path d="M15.174,18.559a.781.781,0,1,0-.809-1.336,8.512,8.512,0,1,1,2.642-2.539.781.781,0,1,0,1.3.868A9.995,9.995,0,0,0,2.929,2.929a10,10,0,0,0,12.245,15.63Zm0,0"
          fill="#fff"/>
    <path d="M333.492,5.358a.786.786,0,0,1-1.112,1.112l-2-2-2,2a.786.786,0,1,1-1.112-1.112l2-2-2-2A.786.786,0,1,1,328.383.249l2,2,2-2a.786.786,0,0,1,1.112,1.112l-2,2Z"
          transform="translate(-320.382 6.656)" fill="#fff"/>
</svg>