<svg xmlns="http://www.w3.org/2000/svg"><symbol id="pdf" viewBox="0 0 21.861 24.3"><path d="M4.176 0h10.126a3.664 3.664 0 012.041 1.272c.808.838 1.638 1.655 2.468 2.47a2.838 2.838 0 01.886 2.14c-.012 1.688 0 3.375 0 5.063v.307a1.723 1.723 0 00.2.034 1.777 1.777 0 011.67 1.828v5.766a1.777 1.777 0 01-.7 1.469 1.921 1.921 0 01-1.172.383c0 .234.009.45 0 .666a2.585 2.585 0 01-1.505 2.333 6.029 6.029 0 01-.789.27H4.18a.535.535 0 00-.1-.043 2.61 2.61 0 01-2.16-2.234c-.047-.321-.039-.65-.057-.989l-.143-.015A1.768 1.768 0 01.01 18.9q-.02-2.9 0-5.81a1.754 1.754 0 011.37-1.76 4.737 4.737 0 01.5-.075V2.719A2.643 2.643 0 013.729.126c.148-.047.298-.084.447-.126zm9.844 1.406H4.691a1.266 1.266 0 00-1.406 1.407v8.443h14.989V5.813h-2.56a1.581 1.581 0 01-1.694-1.702v-2.7zm-3.244 17.913h8.86c.4 0 .522-.12.522-.513V13.18c0-.368-.125-.5-.491-.5H1.974c-.449 0-.556.108-.557.55v5.507c0 .477.1.578.575.578zm7.5 1.424H3.285v.437a1.268 1.268 0 001.419 1.414h10.474c.617 0 1.234.007 1.851 0a1.227 1.227 0 001.245-1.132c.02-.23 0-.466 0-.716zm-.92-16.336l-1.93-1.96v1.735c0 .157.07.227.227.227.585-.002 1.167-.002 1.704-.002z" fill="#fff" stroke="#fff" stroke-width=".3"/><path d="M9.271 16.012v-2.15c0-.223.069-.417.294-.435a5.7 5.7 0 012.29.108 1.3 1.3 0 01.93 1.271 30.69 30.69 0 010 2.427 1.426 1.426 0 01-1.449 1.394 15.345 15.345 0 01-1.633.016c-.305-.006-.427-.154-.429-.462-.005-.721-.003-1.444-.003-2.169zm1.136 1.66h.527c.537 0 .73-.183.743-.724.01-.443 0-.888 0-1.329 0-.256 0-.514-.028-.768a.453.453 0 00-.382-.443c-.28-.042-.565-.038-.86-.054zm-4.124-.934v1.422c0 .343-.169.491-.555.493s-.566-.143-.566-.479v-4.341c0-.276.093-.425.352-.425a17.216 17.216 0 012.114.07 1.231 1.231 0 011.093 1.115 1.887 1.887 0 01-.314 1.615 1.563 1.563 0 01-1.156.525c-.312.02-.622.005-.968.005zm.006-.847h.575c.583 0 .806-.236.772-.819a.688.688 0 00-.047-.3c-.081-.132-.187-.315-.311-.341a7.2 7.2 0 00-.988-.086zm8.369-.31c.355 0 .68-.006 1 0a.393.393 0 01.421.427.387.387 0 01-.421.443c-.325.005-.65 0-1 0v1.585c0 .493-.2.671-.69.607-.322-.043-.435-.163-.435-.49v-4.3c0-.306.1-.435.41-.452.481-.027.964-.017 1.446-.02h.981c.349 0 .5.154.491.5s-.145.478-.484.479c-.506 0-1.012.005-1.517 0-.151 0-.207.044-.2.2.004.328-.002.655-.002 1.021z" fill="#fff" stroke="#fff" stroke-width=".3"/></symbol></svg>