<svg xmlns="http://www.w3.org/2000/svg" xmlns:xlink="http://www.w3.org/1999/xlink" width="265.837" height="241.685" viewBox="0 0 265.837 241.685">
  <defs>
    <filter id="Path_128" x="0" y="0" width="265.837" height="241.685" filterUnits="userSpaceOnUse">
      <feOffset dy="15" input="SourceAlpha"/>
      <feGaussianBlur stdDeviation="22.5" result="blur"/>
      <feFlood flood-opacity="0.051"/>
      <feComposite operator="in" in2="blur"/>
      <feComposite in="SourceGraphic"/>
    </filter>
    <linearGradient id="linear-gradient" x1="0.5" x2="0.5" y2="1" gradientUnits="objectBoundingBox">
      <stop offset="0" stop-color="#fff" stop-opacity="0"/>
      <stop offset="1" stop-color="#fff"/>
    </linearGradient>
    <linearGradient id="linear-gradient-2" x1="1.234" y1="1.621" x2="-0.189" y2="0.323" gradientUnits="objectBoundingBox">
      <stop offset="0" stop-color="#fff" stop-opacity="0"/>
      <stop offset="0.617" stop-color="#6d8dc6" stop-opacity="0.6"/>
      <stop offset="1" stop-color="#4b68aa"/>
    </linearGradient>
    <linearGradient id="linear-gradient-3" x1="0.45" y1="0.577" x2="0.138" y2="0.139" xlink:href="#linear-gradient"/>
    <linearGradient id="linear-gradient-4" x1="0.684" y1="0.83" x2="0.111" y2="0.038" xlink:href="#linear-gradient-2"/>
    <linearGradient id="linear-gradient-5" x1="0.403" y1="0.354" x2="0.06" y2="-0.013" xlink:href="#linear-gradient-2"/>
    <linearGradient id="linear-gradient-6" x1="0.616" y1="0.585" x2="0.122" y2="0.286" xlink:href="#linear-gradient-2"/>
    <linearGradient id="linear-gradient-7" x1="0.963" x2="-0.078" y2="0.944" gradientUnits="objectBoundingBox">
      <stop offset="0" stop-color="#ce001e"/>
      <stop offset="1" stop-color="#b00011"/>
    </linearGradient>
  </defs>
  <g id="folder" transform="translate(51.145 24.987)">
    <g id="Group_22" data-name="Group 22">
      <g transform="matrix(1, 0, 0, 1, -51.15, -24.99)" filter="url(#Path_128)">
        <path id="Path_128-2" data-name="Path 128" d="M52.335,51H13.084A13.25,13.25,0,0,0,0,64.336v80.014a13.25,13.25,0,0,0,13.084,13.336h104.67a13.25,13.25,0,0,0,13.084-13.336V77.671a13.25,13.25,0,0,0-13.084-13.336H65.418Z" transform="translate(67.5 1.5)" fill="#f3f3f3"/>
      </g>
      <rect id="Rectangle_82" data-name="Rectangle 82" width="131" height="119" rx="15" transform="translate(16.21)" fill="#93b4e2"/>
      <path id="folder-2" data-name="folder" d="M65.418,51H16.355A16.4,16.4,0,0,0,0,67.355v98.128a16.4,16.4,0,0,0,16.355,16.355H147.192a16.4,16.4,0,0,0,16.355-16.355V83.709a16.4,16.4,0,0,0-16.355-16.355H81.773Z" transform="translate(0 -40.469)" fill="#d4e0f2" stroke="#fff" stroke-width="1.5"/>
    </g>
    <g id="question_3_" data-name="question (3)" transform="translate(46.21 49.001)">
      <path id="Path_129" data-name="Path 129" d="M249.165,31.336A18.349,18.349,0,1,1,279.2,25.107a6.316,6.316,0,0,0-.327,3.5l1.094,5.736a1.582,1.582,0,0,1-1.85,1.85L272.385,35.1a6.291,6.291,0,0,0-3.491.323A18.35,18.35,0,0,1,249.165,31.336Z" transform="translate(-210.188 0.001)" fill="#e9eef6"/>
      <path id="Path_130" data-name="Path 130" d="M284.659,40.832a.662.662,0,0,0,.184-.6L283.749,34.5a7.218,7.218,0,0,1,.375-4.008,17.43,17.43,0,0,0-28.542-18.736h0a17.435,17.435,0,0,0,18.746,28.538,7.194,7.194,0,0,1,4-.371l5.736,1.094A.662.662,0,0,0,284.659,40.832Z" transform="translate(-215.958 -5.718)" fill="url(#linear-gradient)"/>
      <path id="Path_131" data-name="Path 131" d="M359.607,154.71v15.229a18.409,18.409,0,0,0,9.138-1.128,6.291,6.291,0,0,1,3.491-.323l1.418.27Z" transform="translate(-310.04 -133.385)" fill="url(#linear-gradient-2)"/>
      <path id="Path_132" data-name="Path 132" d="M49.273,140.305a28.864,28.864,0,1,0-47.259-9.8,9.938,9.938,0,0,1,.515,5.509l-1.72,9.024a2.489,2.489,0,0,0,2.911,2.911l9.024-1.721a9.9,9.9,0,0,1,5.493.509A28.869,28.869,0,0,0,49.273,140.305Z" transform="translate(0 -78.461)" fill="#e8eef6"/>
      <path id="Path_133" data-name="Path 133" d="M11.437,155.243a1.041,1.041,0,0,1-.289-.939l1.721-9.024a11.358,11.358,0,0,0-.59-6.306,27.421,27.421,0,0,1,44.9-29.476h0a27.429,27.429,0,0,1-29.491,44.9,11.319,11.319,0,0,0-6.291-.584l-9.024,1.721a1.041,1.041,0,0,1-.939-.289Z" transform="translate(-8.927 -87.457)" fill="url(#linear-gradient-3)"/>
      <path id="Path_134" data-name="Path 134" d="M189.538,398.561a28.713,28.713,0,0,1-8.658,3.149l-9.608-9.608a4.094,4.094,0,0,1,0-5.89,4.126,4.126,0,0,1,2.981-1.221,3.987,3.987,0,0,1,2.959,1.248Z" transform="translate(-146.589 -331.925)" fill="url(#linear-gradient-4)"/>
      <path id="Path_135" data-name="Path 135" d="M168.475,178.6a28.935,28.935,0,0,1-14.346,21.84l-17.921-17.922a4.472,4.472,0,0,1-.653-2.835,10.309,10.309,0,0,1,2.209-6.659l-8.1-8.109a2.772,2.772,0,0,1-1-2.28q0-2.605,2.824-4.94t7.871-2.334a13.03,13.03,0,0,1,8.361,2.551C148.059,158.19,161.843,171.969,168.475,178.6Z" transform="translate(-110.927 -133.951)" fill="url(#linear-gradient-5)"/>
      <path id="Path_136" data-name="Path 136" d="M216.51,203.4a28.935,28.935,0,0,1-14.346,21.84l-17.788-17.79a3.221,3.221,0,0,0,2.2.615q3.2,0,3.2-2.226a17.671,17.671,0,0,1,.135-2.578,5.589,5.589,0,0,1,.815-1.953,9.037,9.037,0,0,1,2.1-2.254q6.127-4.722,6.129-9.935a7.631,7.631,0,0,0-1.757-4.994c3.762,3.724,13.909,13.87,19.312,19.275Z" transform="translate(-158.961 -158.742)" fill="url(#linear-gradient-6)"/>
      <path id="Path_137" data-name="Path 137" d="M128.662,162.64q0-2.606,2.823-4.94t7.872-2.334a13.019,13.019,0,0,1,8.36,2.551,7.87,7.87,0,0,1,3.2,6.406q0,5.212-6.129,9.935a9.058,9.058,0,0,0-2.1,2.253,5.612,5.612,0,0,0-.814,1.954,17.681,17.681,0,0,0-.136,2.579q0,2.227-3.2,2.226a2.99,2.99,0,0,1-2.334-.748,4.473,4.473,0,0,1-.651-2.835,10.166,10.166,0,0,1,3.638-8.128q.163-.16,1.411-1.122a21.2,21.2,0,0,0,1.737-1.444,7.7,7.7,0,0,0,1.086-1.471,3.848,3.848,0,0,0,.6-2.005,3.083,3.083,0,0,0-1.353-2.7,6.059,6.059,0,0,0-3.516-.936,6.706,6.706,0,0,0-3.029.6,3.429,3.429,0,0,0-1.569,1.327,4.9,4.9,0,0,1-1.028,1.327,2.3,2.3,0,0,1-1.623.6,3.464,3.464,0,0,1-2.245-.814A2.774,2.774,0,0,1,128.662,162.64Zm5.7,28.556a3.977,3.977,0,0,1,1.253-2.959,4.125,4.125,0,0,1,2.981-1.222,3.987,3.987,0,0,1,2.959,1.249,4.128,4.128,0,0,1,0,5.863,3.984,3.984,0,0,1-2.959,1.249,4.07,4.07,0,0,1-2.986-1.249A4.01,4.01,0,0,1,134.363,191.2Z" transform="translate(-110.928 -133.95)" fill="url(#linear-gradient-7)"/>
    </g>
  </g>
</svg>
