<svg xmlns="http://www.w3.org/2000/svg" xmlns:xlink="http://www.w3.org/1999/xlink" width="265.837" height="241.685" viewBox="0 0 265.837 241.685">
  <defs>
    <filter id="Path_128" x="0" y="0" width="265.837" height="241.685" filterUnits="userSpaceOnUse">
      <feOffset dy="15" input="SourceAlpha"/>
      <feGaussianBlur stdDeviation="22.5" result="blur"/>
      <feFlood flood-opacity="0.051"/>
      <feComposite operator="in" in2="blur"/>
      <feComposite in="SourceGraphic"/>
    </filter>
    <linearGradient id="linear-gradient" x1="0.901" y1="1.021" x2="0.267" y2="1.592" gradientUnits="objectBoundingBox">
      <stop offset="0" stop-color="#00a2f3" stop-opacity="0"/>
      <stop offset="1" stop-color="#0075cd"/>
    </linearGradient>
    <linearGradient id="linear-gradient-2" x1="0.178" y1="1.675" x2="0.731" y2="0.805" gradientUnits="objectBoundingBox">
      <stop offset="0" stop-color="#fff" stop-opacity="0"/>
      <stop offset="1" stop-color="#fff"/>
    </linearGradient>
    <linearGradient id="linear-gradient-3" x1="0.469" y1="1.114" x2="0.112" y2="0.217" gradientUnits="objectBoundingBox">
      <stop offset="0" stop-color="#fff" stop-opacity="0"/>
      <stop offset="0.617" stop-color="#6d8dc6" stop-opacity="0.6"/>
      <stop offset="1" stop-color="#4b68aa"/>
    </linearGradient>
    <linearGradient id="linear-gradient-6" x1="0.101" y1="0.829" x2="0.825" y2="0.113" gradientUnits="objectBoundingBox">
      <stop offset="0" stop-color="#9b0006"/>
      <stop offset="1" stop-color="#d30020"/>
    </linearGradient>
    <linearGradient id="linear-gradient-7" x1="0.9" y1="-0.03" x2="0.265" y2="0.54" gradientUnits="objectBoundingBox">
      <stop offset="0" stop-color="#be3f45" stop-opacity="0"/>
      <stop offset="1" stop-color="#be3f45"/>
    </linearGradient>
    <linearGradient id="linear-gradient-8" x1="0.631" y1="-1.491" x2="0.427" y2="-0.859" xlink:href="#linear-gradient-7"/>
    <linearGradient id="linear-gradient-9" x1="0.887" y1="-1.772" x2="0.629" y2="-1.402" xlink:href="#linear-gradient-7"/>
    <linearGradient id="linear-gradient-10" x1="0.493" y1="-0.981" x2="0.493" y2="-1.845" gradientUnits="objectBoundingBox">
      <stop offset="0" stop-color="#fff"/>
      <stop offset="1" stop-color="#e2edf2"/>
    </linearGradient>
    <linearGradient id="linear-gradient-11" x1="0.746" y1="-1.748" x2="-0.003" y2="-0.517" xlink:href="#linear-gradient-3"/>
    <radialGradient id="radial-gradient" cx="0" cy="0.346" r="0.93" gradientTransform="matrix(0.593, 0.806, -0.787, 0.579, 0.273, 0.146)" gradientUnits="objectBoundingBox">
      <stop offset="0" stop-color="#fffcf8"/>
      <stop offset="0.224" stop-color="#fbf9f7"/>
      <stop offset="0.425" stop-color="#f0f1f3"/>
      <stop offset="0.618" stop-color="#dee3ed"/>
      <stop offset="0.806" stop-color="#c4d0e4"/>
      <stop offset="0.988" stop-color="#a3b7d9"/>
      <stop offset="1" stop-color="#a1b5d8"/>
    </radialGradient>
    <linearGradient id="linear-gradient-12" x1="1" y1="1.485" x2="-0.085" y2="-0.27" xlink:href="#linear-gradient-3"/>
  </defs>
  <g id="folder" transform="translate(51.145 19.987)">
    <g id="Group_22" data-name="Group 22">
      <g transform="matrix(1, 0, 0, 1, -51.15, -19.99)" filter="url(#Path_128)">
        <path id="Path_128-2" data-name="Path 128" d="M52.335,51H13.084A13.25,13.25,0,0,0,0,64.336v80.014a13.25,13.25,0,0,0,13.084,13.336h104.67a13.25,13.25,0,0,0,13.084-13.336V77.671a13.25,13.25,0,0,0-13.084-13.336H65.418Z" transform="translate(67.5 1.5)" fill="#f3f3f3"/>
      </g>
      <rect id="Rectangle_83" data-name="Rectangle 83" width="107" height="97" rx="10" transform="translate(28.21)" fill="#93b4e2" opacity="0.3"/>
      <rect id="Rectangle_82" data-name="Rectangle 82" width="131" height="119" rx="15" transform="translate(16.21 5)" fill="#93b4e2"/>
      <path id="folder-2" data-name="folder" d="M65.418,51H16.355A16.4,16.4,0,0,0,0,67.355v98.128a16.4,16.4,0,0,0,16.355,16.355H147.192a16.4,16.4,0,0,0,16.355-16.355V83.709a16.4,16.4,0,0,0-16.355-16.355H81.773Z" transform="translate(0 -35.469)" fill="#d4e0f2" stroke="#fff" stroke-width="1.5"/>
    </g>
    <g id="priority" transform="translate(35.21 54)">
      <path id="Path_148" data-name="Path 148" d="M101.89,108.035a21.207,21.207,0,0,1-8.358,14.9L78.882,108.289,75.2,104.6A8.232,8.232,0,1,1,86.828,92.972Z" transform="translate(-60.012 -84.882)" fill="url(#linear-gradient)"/>
      <g id="Group_24" data-name="Group 24">
        <circle id="Ellipse_42" data-name="Ellipse 42" cx="21.218" cy="21.218" r="21.218" fill="#e9eef6"/>
        <ellipse id="Ellipse_36" data-name="Ellipse 36" cx="20.107" cy="20.25" rx="20.107" ry="20.25" transform="translate(1 1)" fill="url(#linear-gradient-2)"/>
        <path id="Path_149" data-name="Path 149" d="M81.906,201.292A21.231,21.231,0,0,1,65.6,208.939c-.6,0-1.195-.024-1.783-.076l-9.758-9.744a11.831,11.831,0,0,1,9.652-9.1,12.022,12.022,0,0,1,1.889-.15,11.785,11.785,0,0,1,8.36,3.464Z" transform="translate(-44.837 -166.614)" fill="url(#linear-gradient-3)"/>
        <circle id="Ellipse_37" data-name="Ellipse 37" cx="8.232" cy="8.232" r="8.232" transform="translate(12.526 5.432)" fill="#95b4e2"/>
        <path id="Path_150" data-name="Path 150" d="M77.135,199.119a16.218,16.218,0,0,1-23.082,0,11.826,11.826,0,0,1,23.082,0Z" transform="translate(-44.836 -166.614)" fill="#95b4e2"/>
      </g>
      <g id="Group_26" data-name="Group 26" transform="translate(50)">
        <circle id="Ellipse_42-2" data-name="Ellipse 42" cx="21.218" cy="21.218" r="21.218" fill="#e9eef6"/>
        <ellipse id="Ellipse_36-2" data-name="Ellipse 36" cx="20.107" cy="20.25" rx="20.107" ry="20.25" transform="translate(1 1)" fill="url(#linear-gradient-2)"/>
        <path id="Path_149-2" data-name="Path 149" d="M81.906,201.292A21.231,21.231,0,0,1,65.6,208.939c-.6,0-1.195-.024-1.783-.076l-9.758-9.744a11.831,11.831,0,0,1,9.652-9.1,12.022,12.022,0,0,1,1.889-.15,11.785,11.785,0,0,1,8.36,3.464Z" transform="translate(-44.837 -166.614)" fill="url(#linear-gradient-3)"/>
        <circle id="Ellipse_37-2" data-name="Ellipse 37" cx="8.232" cy="8.232" r="8.232" transform="translate(12.526 5.432)" fill="#95b4e2"/>
        <path id="Path_150-2" data-name="Path 150" d="M77.135,199.119a16.218,16.218,0,0,1-23.082,0,11.826,11.826,0,0,1,23.082,0Z" transform="translate(-44.836 -166.614)" fill="#95b4e2"/>
      </g>
      <circle id="Ellipse_40" data-name="Ellipse 40" cx="26.938" cy="26.938" r="26.938" transform="translate(18.436 12.124)" fill="url(#linear-gradient-6)"/>
      <path id="Path_156" data-name="Path 156" d="M234.893,189.5a26.921,26.921,0,0,1-10.61,18.922l-18.6-18.6L201,185.143a10.45,10.45,0,1,1,14.766-14.766Z" transform="translate(-162.708 -147.841)" fill="url(#linear-gradient-7)"/>
      <path id="Path_157" data-name="Path 157" d="M209.525,307.887a26.953,26.953,0,0,1-20.707,9.709c-.762,0-1.516-.031-2.263-.1l-12.388-12.371a15.02,15.02,0,0,1,12.254-11.55,15.231,15.231,0,0,1,2.4-.191,14.963,14.963,0,0,1,10.613,4.4Z" transform="translate(-143.444 -251.597)" fill="url(#linear-gradient-8)"/>
      <circle id="Ellipse_41" data-name="Ellipse 41" cx="10.45" cy="10.45" r="10.45" transform="translate(34.923 19.164)" fill="#fff"/>
      <path id="Path_158" data-name="Path 158" d="M178.253,315.984a26.965,26.965,0,0,0,29.786-6.879l-5.854-5.854a3.16,3.16,0,0,0-1.986-1.092l-2.642-.384-6.955-6.94a3.217,3.217,0,0,0-5.324.671l-2.082,4.218a3.214,3.214,0,0,1-2.42,1.758l-4.655.676a3.214,3.214,0,0,0-1.781,5.482l.242.236c.042.046.085.092.13.136l.242.236c.042.046.084.092.13.136l.242.236c.042.046.084.092.13.136l.242.236c.042.046.084.092.13.136l.242.236c.042.046.084.092.13.136l.242.236c.042.046.084.092.13.136l.243.237c.042.046.084.091.13.136l.242.236c.042.046.085.092.13.136l.242.236c.042.046.084.092.13.136l.243.237c.042.046.084.091.13.136l.063.061a3.213,3.213,0,0,1,.507,2.344Z" transform="translate(-142.787 -251.867)" fill="url(#linear-gradient-9)"/>
      <path id="Path_159" data-name="Path 159" d="M203.468,305.13a20.588,20.588,0,0,1-29.3,0,15.014,15.014,0,0,1,29.3,0Z" transform="translate(-143.442 -251.598)" fill="url(#linear-gradient-10)"/>
      <path id="Path_160" data-name="Path 160" d="M200.855,302.161l-2.642-.384-6.955-6.94a3.217,3.217,0,0,0-5.324.671l-2.082,4.218a3.213,3.213,0,0,1-2.42,1.758l-4.655.676a3.162,3.162,0,0,0-1.939,1.038,14.888,14.888,0,0,0-.674,2.2,20.588,20.588,0,0,0,29.3,0,14.87,14.87,0,0,0-.668-2.192A3.157,3.157,0,0,0,200.855,302.161Z" transform="translate(-143.442 -251.867)" opacity="0.446" fill="url(#linear-gradient-11)"/>
      <path id="Path_161" data-name="Path 161" d="M191.042,295.5l2.082,4.218a3.214,3.214,0,0,0,2.42,1.758l4.655.676a3.214,3.214,0,0,1,1.781,5.482l-3.368,3.284a3.213,3.213,0,0,0-.924,2.845l.8,4.636a3.214,3.214,0,0,1-4.664,3.388l-4.164-2.189a3.214,3.214,0,0,0-2.991,0l-4.164,2.189a3.214,3.214,0,0,1-4.664-3.388l.8-4.636a3.214,3.214,0,0,0-.924-2.845l-3.368-3.284a3.214,3.214,0,0,1,1.781-5.482l4.655-.676a3.214,3.214,0,0,0,2.42-1.758l2.082-4.218A3.214,3.214,0,0,1,191.042,295.5Z" transform="translate(-142.786 -251.863)" fill="url(#radial-gradient)"/>
      <path id="Path_163" data-name="Path 163" d="M223.72,334.583l1.034,2.1a1.6,1.6,0,0,0,1.2.874l2.313.336a1.6,1.6,0,0,1,.885,2.724l-1.674,1.632a1.6,1.6,0,0,0-.459,1.414l.4,2.3a1.6,1.6,0,0,1-2.317,1.684l-2.069-1.088a1.6,1.6,0,0,0-1.486,0l-2.069,1.088a1.6,1.6,0,0,1-2.317-1.684l.4-2.3a1.6,1.6,0,0,0-.459-1.414l-1.674-1.632a1.6,1.6,0,0,1,.885-2.724l2.313-.336a1.6,1.6,0,0,0,1.2-.874l1.034-2.1A1.6,1.6,0,0,1,223.72,334.583Z" transform="translate(-176.915 -284.686)" fill="url(#linear-gradient-12)"/>
    </g>
  </g>
</svg>
