<svg xmlns="http://www.w3.org/2000/svg" xmlns:xlink="http://www.w3.org/1999/xlink" width="265.837" height="241.685" viewBox="0 0 265.837 241.685">
  <defs>
    <filter id="Path_128" x="0" y="0" width="265.837" height="241.685" filterUnits="userSpaceOnUse">
      <feOffset dy="15" input="SourceAlpha"/>
      <feGaussianBlur stdDeviation="22.5" result="blur"/>
      <feFlood flood-opacity="0.051"/>
      <feComposite operator="in" in2="blur"/>
      <feComposite in="SourceGraphic"/>
    </filter>
    <linearGradient id="linear-gradient" x1="0.366" y1="0.325" x2="1.162" y2="0.279" gradientUnits="objectBoundingBox">
      <stop offset="0" stop-color="#f7fafd"/>
      <stop offset="1" stop-color="#d5e0f2"/>
    </linearGradient>
    <linearGradient id="linear-gradient-2" x1="0.567" y1="0.31" x2="-0.078" y2="0.317" gradientUnits="objectBoundingBox">
      <stop offset="0" stop-color="#e7f1fd"/>
      <stop offset="1" stop-color="#96abd3"/>
    </linearGradient>
    <linearGradient id="linear-gradient-3" x1="0.497" y1="0.818" x2="0.497" y2="-0.343" gradientUnits="objectBoundingBox">
      <stop offset="0" stop-color="#fff" stop-opacity="0"/>
      <stop offset="1" stop-color="#fff"/>
    </linearGradient>
    <linearGradient id="linear-gradient-4" x1="0.207" y1="0.58" x2="1.338" y2="0.554" gradientUnits="objectBoundingBox">
      <stop offset="0" stop-color="#fff" stop-opacity="0"/>
      <stop offset="0.617" stop-color="#6d8dc6" stop-opacity="0.6"/>
      <stop offset="1" stop-color="#4b68aa"/>
    </linearGradient>
    <linearGradient id="linear-gradient-5" x1="0.487" y1="1.018" x2="0.522" y2="-0.411" xlink:href="#linear-gradient-4"/>
    <linearGradient id="linear-gradient-6" x1="0.842" y1="0.809" x2="0.303" y2="0.199" gradientUnits="objectBoundingBox">
      <stop offset="0" stop-color="#fff" stop-opacity="0"/>
      <stop offset="0.648" stop-color="#6d8dc6" stop-opacity="0.6"/>
      <stop offset="1" stop-color="#4b68aa"/>
    </linearGradient>
    <linearGradient id="linear-gradient-7" x1="0.904" y1="0.091" x2="0.191" y2="0.83" gradientUnits="objectBoundingBox">
      <stop offset="0" stop-color="#ce001e"/>
      <stop offset="1" stop-color="#b00011"/>
    </linearGradient>
    <linearGradient id="linear-gradient-8" x1="0.5" x2="0.5" y2="1" gradientUnits="objectBoundingBox">
      <stop offset="0" stop-color="#ebeff7"/>
      <stop offset="1" stop-color="#fff"/>
    </linearGradient>
  </defs>
  <g id="folder" transform="translate(51.145 24.987)">
    <g id="Group_22" data-name="Group 22">
      <g transform="matrix(1, 0, 0, 1, -51.15, -24.99)" filter="url(#Path_128)">
        <path id="Path_128-2" data-name="Path 128" d="M52.335,51H13.084A13.25,13.25,0,0,0,0,64.336v80.014a13.25,13.25,0,0,0,13.084,13.336h104.67a13.25,13.25,0,0,0,13.084-13.336V77.671a13.25,13.25,0,0,0-13.084-13.336H65.418Z" transform="translate(67.5 1.5)" fill="#f3f3f3"/>
      </g>
      <rect id="Rectangle_82" data-name="Rectangle 82" width="131" height="119" rx="15" transform="translate(16.21)" fill="#93b4e2"/>
      <path id="folder-2" data-name="folder" d="M65.418,51H16.355A16.4,16.4,0,0,0,0,67.355v98.128a16.4,16.4,0,0,0,16.355,16.355H147.192a16.4,16.4,0,0,0,16.355-16.355V83.709a16.4,16.4,0,0,0-16.355-16.355H81.773Z" transform="translate(0 -40.469)" fill="#d4e0f2" stroke="#fff" stroke-width="1.5"/>
    </g>
    <g id="map" transform="translate(29.211 49)">
      <path id="Path_165" data-name="Path 165" d="M3.313,199.406l20.222-6.731a10,10,0,0,1,3.156-.512l4.654-50.639a9.8,9.8,0,0,0-2.576.343L10.593,146.85a1.924,1.924,0,0,0-1.487,1.279L.03,197.507C-.245,199,1.494,200.012,3.313,199.406Z" transform="translate(-0.001 -129.778)" fill="#eaeef6"/>
      <path id="Path_167" data-name="Path 167" d="M153.559,146.461l-15.914-4.595a9.127,9.127,0,0,0-2.513-.343l-4.654,50.639a9.18,9.18,0,0,1,3.062.512l19.43,6.889a9.581,9.581,0,0,0,3.186.54V146.819A9.39,9.39,0,0,1,153.559,146.461Z" transform="translate(-103.786 -129.778)" fill="url(#linear-gradient)"/>
      <path id="Path_168" data-name="Path 168" d="M386.806,199.406l-20.223-6.731a10,10,0,0,0-3.156-.512l-4.654-50.639a9.8,9.8,0,0,1,2.577.343l18.176,4.983a1.924,1.924,0,0,1,1.487,1.279l9.077,49.378C390.364,199,388.625,200.012,386.806,199.406Z" transform="translate(-285.381 -129.778)" fill="#eaeef6"/>
      <path id="Path_170" data-name="Path 170" d="M258.6,146.461l15.914-4.595a9.127,9.127,0,0,1,2.513-.343l4.654,50.639a9.179,9.179,0,0,0-3.062.512l-19.43,6.889a9.581,9.581,0,0,1-3.186.54V146.819A9.388,9.388,0,0,0,258.6,146.461Z" transform="translate(-203.631 -129.778)" fill="url(#linear-gradient-2)"/>
      <path id="Path_171" data-name="Path 171" d="M108.431,163.253a1.376,1.376,0,0,0-.989-1.078l-16.7-4.578c-.135-.037-.275-.07-.415-.1a6.6,6.6,0,0,0-1.3-.129,5.919,5.919,0,0,0-1.614.216L71.5,162.179c-.121.035-.244.065-.368.095l-.063.015c-.167.042-.367.09-.584.133a12.787,12.787,0,0,1-4.987,0c-.363-.072-.688-.15-.991-.238l-15.914-4.595c-.119-.034-.243-.065-.37-.091a5.939,5.939,0,0,0-.815-.11c-.141-.009-.286-.014-.43-.014a6.618,6.618,0,0,0-1.719.228l-16.7,4.578a1.376,1.376,0,0,0-.989,1.078L19.674,206.2a1.376,1.376,0,0,0,1.788,1.554L38.141,202.2a13.2,13.2,0,0,1,4.182-.678,12.367,12.367,0,0,1,4.145.7L65.9,209.112a6.427,6.427,0,0,0,4.207,0l19.429-6.889a12.365,12.365,0,0,1,4.146-.7,13.192,13.192,0,0,1,4.18.678l16.679,5.552a1.376,1.376,0,0,0,1.788-1.554Z" transform="translate(-15.631 -142.382)" fill="url(#linear-gradient-3)"/>
      <path id="Path_176" data-name="Path 176" d="M45.257,157.637l-16.7,4.578a1.376,1.376,0,0,0-.989,1.078l-7.895,42.948a1.376,1.376,0,0,0,1.788,1.554l16.678-5.551a13.2,13.2,0,0,1,4.182-.678c.1,0,.2,0,.3.006l4.058-44.153A6.559,6.559,0,0,0,45.257,157.637Z" transform="translate(-15.631 -142.422)" fill="url(#linear-gradient-4)"/>
      <path id="Path_179" data-name="Path 179" d="M382.821,182.209l-3.479-18.927a1.376,1.376,0,0,0-.99-1.078l-16.7-4.578c-.135-.037-.275-.07-.415-.1a6.571,6.571,0,0,0-1-.122l1.82,19.806c.294-.024.591-.037.889-.037a11.215,11.215,0,0,1,2.945.392Z" transform="translate(-286.543 -142.412)" fill="url(#linear-gradient-5)"/>
      <path id="Path_182" data-name="Path 182" d="M130.926,174.08c.09,3.763-.85,6.046-2.911,7.112-2.31,1.194-5.473.546-9.669-1.982-3.53-2.127-7.286-4.093-10.992-2.788a9.932,9.932,0,0,0-3.893,2.812c-.457.5-.9,1.02-1.338,1.527-1.731,2.024-3.366,3.936-5.8,4.61-2.082.576-4.262.1-6.569-.4a24.353,24.353,0,0,0-4.795-.709,12.431,12.431,0,0,0-5.7,1.355,20.493,20.493,0,0,0-4.615.107c-.572.053-1.066.1-1.4.113-.995.043-2.285-.243-2.643-1.191a3.417,3.417,0,0,1-.1-1.343,27.385,27.385,0,0,1,.937-5.7l.014-.051a3.975,3.975,0,0,0,.165-2.143,3.206,3.206,0,0,0-1.368-1.729,15.39,15.39,0,0,0-4.181-1.836c-1.989-.647-3.869-1.257-4.87-2.869-1.116-1.8-.632-4.245.342-5.877a16.028,16.028,0,0,1,4.71-4.531l.087-.063c.491-.352.962-1.11.862-1.106a6.59,6.59,0,0,0-1.421.221l-1.277.35a15.589,15.589,0,0,0-4.261,4.353,7.281,7.281,0,0,0-.328,7.45c1.293,2.081,3.527,2.807,5.688,3.51a14.274,14.274,0,0,1,3.78,1.635,1.812,1.812,0,0,1,.78.9,2.75,2.75,0,0,1-.166,1.335l-.014.052a28.886,28.886,0,0,0-.989,6.016,4.732,4.732,0,0,0,.2,1.964c.608,1.608,2.345,2.173,3.861,2.172q.133,0,.263-.006c.375-.016.886-.063,1.478-.118.638-.059,1.422-.131,2.166-.171a14.09,14.09,0,0,0-4.167,5.1l-.03.063a1.938,1.938,0,0,1-.668.943,2.514,2.514,0,0,1-1.378-.035l-.108-.02c-4.691-.87-10.1.437-14.843,3.587-4.117,2.735-7.277,6.378-10.317,9.927l2.807-.934a42.943,42.943,0,0,1,8.347-7.733c4.417-2.934,9.422-4.159,13.731-3.359l.1.02a3.636,3.636,0,0,0,2.325-.1,3.13,3.13,0,0,0,1.366-1.653l.029-.061A12.308,12.308,0,0,1,84.8,185.775h.132a23.214,23.214,0,0,1,4.494.675,28.26,28.26,0,0,0,3.942.661c2.033.493,3.428,2.771,4.18,4l.012.02c1.151,1.881,2.565,2.961,4.091,3.124a6.888,6.888,0,0,0,3.048-.582l2.1-.764a6.517,6.517,0,0,1,7.988,3.123,22.039,22.039,0,0,0,1.307,2.2c.1.15.2.3.308.448a7.174,7.174,0,0,1,1.278,2.424,4.662,4.662,0,0,1,.091.945c.2.056.4.115.591.18l.917.305a7.216,7.216,0,0,0-.12-1.753,8.4,8.4,0,0,0-1.513-2.964c-.1-.145-.2-.289-.3-.433a20.525,20.525,0,0,1-1.216-2.046,8.034,8.034,0,0,0-9.848-3.85l-2.1.764a5.647,5.647,0,0,1-2.372.5c-1.315-.14-2.336-1.387-2.961-2.409l-.012-.02a13.8,13.8,0,0,0-2.651-3.366c.177-.037.355-.078.532-.127,2.885-.8,4.749-2.977,6.552-5.085.425-.5.863-1.01,1.3-1.485a8.549,8.549,0,0,1,3.283-2.41c3.085-1.088,6.488.716,9.709,2.657,4.684,2.822,8.329,3.486,11.145,2.03a6.356,6.356,0,0,0,3.1-3.636Z" transform="translate(-36.141 -142.407)" fill="#e7f1fd"/>
      <path id="Path_183" data-name="Path 183" d="M244.772,181.16l-33.238-33.238-12.566,3.628a9.4,9.4,0,0,1-2.6.358,9.612,9.612,0,0,1-1.8-.173c-.269-.051-.536-.11-.8-.186l-9.548-2.757-3.021-.872a15.466,15.466,0,0,0-.17,2.281c0,6.826,4.46,21.593,10.624,27.069l22.281,22.281,5.045-1.789a9.179,9.179,0,0,1,3.062-.512,10.015,10.015,0,0,1,3.156.512l20.223,6.731c1.819.606,3.558-.406,3.283-1.9Z" transform="translate(-144.003 -134.867)" fill="url(#linear-gradient-6)"/>
      <path id="Path_184" data-name="Path 184" d="M211.705,99.442c0,8.469-6.866,29.17-15.335,29.17s-15.335-20.7-15.335-29.17a15.335,15.335,0,0,1,30.67,0Z" transform="translate(-144.002 -84.107)" fill="#eb1d3b"/>
      <path id="Path_185" data-name="Path 185" d="M214.04,104.362c0,8.023-6.5,27.634-14.527,27.634s-14.527-19.611-14.527-27.634a14.527,14.527,0,0,1,29.055,0Z" transform="translate(-147.144 -88.663)" fill="url(#linear-gradient-7)"/>
      <circle id="Ellipse_43" data-name="Ellipse 43" cx="10.504" cy="10.504" r="10.504" transform="translate(41.864 5.194)" fill="url(#linear-gradient-8)"/>
    </g>
  </g>
</svg>
