<svg xmlns="http://www.w3.org/2000/svg" xmlns:xlink="http://www.w3.org/1999/xlink" width="44.511" height="44.511" viewBox="0 0 44.511 44.511"><defs><filter id="a" x="0" y="0" width="44.511" height="44.511" filterUnits="userSpaceOnUse"><feOffset dy="3" input="SourceAlpha"/><feGaussianBlur stdDeviation="5" result="b"/><feFlood flood-color="#84a4d7" flood-opacity="0.549"/><feComposite operator="in" in2="b"/><feComposite in="SourceGraphic"/></filter></defs><g transform="matrix(1, 0, 0, 1, 0, 0)" filter="url(#a)"><path d="M-6432.948-841.769a6.956,6.956,0,0,1-2.052-4.953,6.959,6.959,0,0,1,2.052-4.955,6.961,6.961,0,0,1,4.953-2.051,6.957,6.957,0,0,1,4.953,2.051,6.958,6.958,0,0,1,2.053,4.955,6.975,6.975,0,0,1-1.187,3.889.546.546,0,0,1-.759.15.545.545,0,0,1-.15-.759,5.9,5.9,0,0,0,1-3.28,5.918,5.918,0,0,0-5.911-5.911,5.918,5.918,0,0,0-5.911,5.911,5.918,5.918,0,0,0,5.911,5.911,5.89,5.89,0,0,0,3.057-.851.549.549,0,0,1,.753.184.547.547,0,0,1-.186.753,7,7,0,0,1-3.624,1.009A6.963,6.963,0,0,1-6432.948-841.769Zm4.406-1.423v-4.871a.547.547,0,0,1,.547-.547.547.547,0,0,1,.548.547v4.871a.548.548,0,0,1-.548.547A.548.548,0,0,1-6428.542-843.192Zm0-6.573v-1.059c0-.066.246-.12.547-.12s.548.053.548.12v1.059c0,.066-.246.12-.548.12S-6428.542-849.7-6428.542-849.764Z" transform="translate(6450.25 865.98)" fill="#85a4d7" stroke="#84a5d7" stroke-width="0.5"/></g></svg>