<svg xmlns="http://www.w3.org/2000/svg" xmlns:xlink="http://www.w3.org/1999/xlink" width="215.319" height="80" viewBox="0 0 215.319 80"><defs><linearGradient id="a" x1="0.5" y1="-0.507" x2="0.5" y2="0.545" gradientUnits="objectBoundingBox"><stop offset="0" stop-color="#bfd7ee"/><stop offset="0.19" stop-color="#d1e2f2"/><stop offset="0.46" stop-color="#e5edf6"/><stop offset="0.73" stop-color="#f1f4f9"/><stop offset="1" stop-color="#f5f6fa"/></linearGradient><linearGradient id="b" y1="-0.507" y2="0.545" xlink:href="#a"/><linearGradient id="c" y1="0.5" x2="1" y2="0.5" gradientUnits="objectBoundingBox"><stop offset="0.01" stop-color="#cacaca"/><stop offset="1" stop-color="#fff"/></linearGradient><linearGradient id="d" y1="0.5" x2="1" y2="0.5" gradientUnits="objectBoundingBox"><stop offset="0.01" stop-color="#9b0006"/><stop offset="1" stop-color="#d30020"/></linearGradient><linearGradient id="e" x1="0" y1="0.5" x2="1" y2="0.5" xlink:href="#c"/><linearGradient id="f" x1="0.038" y1="0.808" x2="0.917" y2="0.278" gradientUnits="objectBoundingBox"><stop offset="0" stop-color="#304d95"/><stop offset="0.26" stop-color="#5170af"/><stop offset="0.58" stop-color="#7497cc"/><stop offset="0.84" stop-color="#8aaede"/><stop offset="1" stop-color="#92b7e4"/></linearGradient><linearGradient id="g" x1="0.183" y1="0.377" x2="1.221" y2="0.595" gradientUnits="objectBoundingBox"><stop offset="0" stop-color="#fff" stop-opacity="0"/><stop offset="0.07" stop-color="#fff" stop-opacity="0.059"/><stop offset="0.47" stop-color="#fff" stop-opacity="0.4"/><stop offset="0.6" stop-color="#fff" stop-opacity="0.29"/><stop offset="0.87" stop-color="#fff" stop-opacity="0.078"/><stop offset="1" stop-color="#fff" stop-opacity="0"/></linearGradient><linearGradient id="h" x1="0" y1="0.5" y2="0.5" xlink:href="#d"/><linearGradient id="i" x1="0.5" y1="-0.506" x2="0.5" y2="0.546" gradientUnits="objectBoundingBox"><stop offset="0" stop-color="#273f85" stop-opacity="0.4"/><stop offset="0.44" stop-color="#273f85" stop-opacity="0.259"/><stop offset="1" stop-color="#273f85" stop-opacity="0.102"/></linearGradient><linearGradient id="j" x1="-0.104" y1="0.898" x2="0.903" y2="-0.043" gradientUnits="objectBoundingBox"><stop offset="0" stop-color="#273f85" stop-opacity="0.4"/><stop offset="0.56" stop-color="#273f85" stop-opacity="0.161"/><stop offset="1" stop-color="#273f85" stop-opacity="0"/></linearGradient><linearGradient id="k" x1="0.5" y1="-0.507" x2="0.5" y2="0.546" xlink:href="#i"/><linearGradient id="l" x1="-0.087" y1="0.894" x2="0.678" y2="0.148" gradientUnits="objectBoundingBox"><stop offset="0" stop-color="#273f85" stop-opacity="0.4"/><stop offset="0.44" stop-color="#273f85" stop-opacity="0.239"/><stop offset="1" stop-color="#273f85" stop-opacity="0"/></linearGradient><linearGradient id="m" x1="-0.006" y1="0.726" x2="0.905" y2="0.322" gradientUnits="objectBoundingBox"><stop offset="0" stop-color="#7b9fd7"/><stop offset="0.27" stop-color="#8db0e0"/><stop offset="0.72" stop-color="#a4c6eb"/><stop offset="1" stop-color="#adceef"/></linearGradient><linearGradient id="n" x1="0.124" y1="0.5" x2="1.026" y2="0.5" gradientUnits="objectBoundingBox"><stop offset="0" stop-color="#6787c8"/><stop offset="0.4" stop-color="#90b3e0"/><stop offset="0.62" stop-color="#a1c5ea"/><stop offset="0.81" stop-color="#9fc3e9"/><stop offset="0.87" stop-color="#99bce5"/><stop offset="0.92" stop-color="#8db1de"/><stop offset="0.96" stop-color="#7da0d4"/><stop offset="0.99" stop-color="#688ac8"/><stop offset="1" stop-color="#6385c5"/></linearGradient><linearGradient id="o" y1="0.499" x2="1" y2="0.499" gradientUnits="objectBoundingBox"><stop offset="0" stop-color="#fff" stop-opacity="0.102"/><stop offset="0.03" stop-color="#fff" stop-opacity="0.11"/><stop offset="0.68" stop-color="#fff" stop-opacity="0.322"/><stop offset="1" stop-color="#fff" stop-opacity="0.4"/></linearGradient><linearGradient id="p" y1="0.499" x2="1" y2="0.499" gradientUnits="objectBoundingBox"><stop offset="0" stop-color="#fff" stop-opacity="0.102"/><stop offset="0.38" stop-color="#fff" stop-opacity="0.31"/><stop offset="0.8" stop-color="#fff" stop-opacity="0.522"/><stop offset="1" stop-color="#fff" stop-opacity="0.6"/></linearGradient><linearGradient id="q" x1="0.042" y1="0.96" x2="0.762" y2="0.283" gradientUnits="objectBoundingBox"><stop offset="0" stop-color="#fff" stop-opacity="0.4"/><stop offset="0.25" stop-color="#fff" stop-opacity="0.322"/><stop offset="0.76" stop-color="#fff" stop-opacity="0.11"/><stop offset="1" stop-color="#fff" stop-opacity="0"/></linearGradient><linearGradient id="r" x1="0.051" y1="0.97" x2="0.772" y2="0.293" gradientUnits="objectBoundingBox"><stop offset="0" stop-color="#fff" stop-opacity="0.302"/><stop offset="0.45" stop-color="#fff" stop-opacity="0.22"/><stop offset="1" stop-color="#fff" stop-opacity="0.102"/></linearGradient><linearGradient id="s" x1="0.001" y1="0.5" x2="1.001" y2="0.5" xlink:href="#d"/><linearGradient id="t" x1="0" y1="0.501" x2="1" y2="0.501" xlink:href="#c"/><linearGradient id="v" x1="0.27" y1="0.5" x2="1.27" y2="0.5" gradientUnits="objectBoundingBox"><stop offset="0" stop-color="#273f85" stop-opacity="0"/><stop offset="0.51" stop-color="#273f85" stop-opacity="0.4"/><stop offset="0.51" stop-color="#273f85" stop-opacity="0.388"/><stop offset="0.61" stop-color="#273f85" stop-opacity="0.22"/><stop offset="0.72" stop-color="#273f85" stop-opacity="0.102"/><stop offset="0.84" stop-color="#273f85" stop-opacity="0.02"/><stop offset="1" stop-color="#273f85" stop-opacity="0"/></linearGradient><linearGradient id="w" x1="-0.001" y1="0.503" x2="0.999" y2="0.503" gradientUnits="objectBoundingBox"><stop offset="0.41" stop-color="#fff" stop-opacity="0"/><stop offset="0.44" stop-color="#fff" stop-opacity="0.078"/><stop offset="0.7" stop-color="#fff" stop-opacity="0.6"/><stop offset="0.84" stop-color="#fff" stop-opacity="0.29"/><stop offset="0.95" stop-color="#fff" stop-opacity="0.078"/><stop offset="1" stop-color="#fff" stop-opacity="0"/></linearGradient></defs><g transform="translate(-68.711 -0.43)"><g transform="translate(68.711 0.43)"><g transform="translate(59.457 23.383)"><path d="M13.248,238.589l-.218-.109h.023a25.031,25.031,0,0,0-4.742-2.089h0c-.187,0-.378.027-.578.027H5.156v-8.9h2.58a3.561,3.561,0,0,1,2.876,1.015,5.335,5.335,0,0,1,.851,3.409,5.7,5.7,0,0,1-.742,3.222,21.844,21.844,0,0,1,4.178,1.971,8.025,8.025,0,0,0,1.72-5.516,14.253,14.253,0,0,0-.455-4.1,6.285,6.285,0,0,0-1.6-2.626q-1.98-2.03-6.371-2.03H0v17.912H7.641a3.539,3.539,0,0,1,2.994,1.2,6.507,6.507,0,0,1,.91,3.914,6.61,6.61,0,0,1-.91,3.959A3.6,3.6,0,0,1,7.618,251H5.156v-8.164H0v12.815H8.151q4.369,0,6.444-2.071a6.339,6.339,0,0,0,1.657-2.808,17.1,17.1,0,0,0,.455-4.514,10.437,10.437,0,0,0-1.365-5.916A7.987,7.987,0,0,0,13.248,238.589Z" transform="translate(0 -222.491)" fill="#fff"/><path d="M120.735,222.87H115.73l-8.06,32.766H113.1l.032-.168c.218-1.019,1.606-6.321,6.776-6.321l-.978-4.651h-3.527l2.808-13.721,2.171,10.617,1.6,7.736h0l.323,1.579h0l1.01,4.906h5.388Z" transform="translate(-58.671 -222.491)" fill="#fff"/><path d="M177.329,245.06a13.2,13.2,0,0,0-2.6.259v22.427h5.156V245.31A13.139,13.139,0,0,0,177.329,245.06Z" transform="translate(-95.213 -234.583)" fill="#fff"/><path d="M162.69,222.87v4.651h5.461v3.668a13.171,13.171,0,0,1,5.156,0v-3.641h5.543V222.87Z" transform="translate(-88.652 -222.491)" fill="#fff"/><path d="M72.533,229.546a8.87,8.87,0,0,0-1.98-4.674,7.864,7.864,0,0,0-6.371-2.812,7.864,7.864,0,0,0-6.371,2.812,7.386,7.386,0,0,0-.646.91,13.129,13.129,0,0,1,4.31,2.7,3.086,3.086,0,0,1,.273-.532,2.68,2.68,0,0,1,2.444-1.247,2.731,2.731,0,0,1,2.485,1.247,8.247,8.247,0,0,1,.91,3.518q.218,2.421.209,7.345t-.209,7.345a8.135,8.135,0,0,1-.91,3.522,2.73,2.73,0,0,1-2.485,1.242,2.685,2.685,0,0,1-2.444-1.242q-1.147-1.82-1.151-10.867a63.435,63.435,0,0,1,.387-8.009,13.248,13.248,0,0,0-4.633-3.186A12.06,12.06,0,0,0,55.9,229.6a65.868,65.868,0,0,0-.455,9.229,65.975,65.975,0,0,0,.455,9.234,9.53,9.53,0,0,0,1.957,4.719,7.87,7.87,0,0,0,6.371,2.808,7.87,7.87,0,0,0,6.371-2.808,8.87,8.87,0,0,0,1.939-4.683,71.863,71.863,0,0,0,.414-9.279A74.065,74.065,0,0,0,72.533,229.546Z" transform="translate(-30.21 -222.05)" fill="#fff"/><path d="M321.055,229.546a8.8,8.8,0,0,0-1.98-4.674,8.623,8.623,0,0,0-12.742,0,7.417,7.417,0,0,0-.651.91,13.064,13.064,0,0,1,2.485,1.265,13.3,13.3,0,0,1,1.82,1.434,2.769,2.769,0,0,1,.255-.532,2.667,2.667,0,0,1,2.439-1.247,2.73,2.73,0,0,1,2.485,1.247,8.426,8.426,0,0,1,.91,3.518c.15,1.611.2,4.064.2,7.345s-.068,5.734-.2,7.345a8.266,8.266,0,0,1-.91,3.522,2.73,2.73,0,0,1-2.485,1.242,2.671,2.671,0,0,1-2.439-1.242q-1.151-1.82-1.151-10.867a63.606,63.606,0,0,1,.382-8.009,13.138,13.138,0,0,0-4.633-3.186,11.62,11.62,0,0,0-.455,1.984,65.877,65.877,0,0,0-.455,9.229,65.983,65.983,0,0,0,.455,9.234,9.489,9.489,0,0,0,1.957,4.719,8.632,8.632,0,0,0,12.742,0,8.8,8.8,0,0,0,1.98-4.674,71.857,71.857,0,0,0,.414-9.279A72.711,72.711,0,0,0,321.055,229.546Z" transform="translate(-165.616 -222.05)" fill="#fff"/><path d="M264.193,279.039a2.639,2.639,0,0,1-2.444,1.2,3.122,3.122,0,0,1-1.474-.332c-.1.155-.187.309-.287.455a12.183,12.183,0,0,1-2.958,3.186,8.214,8.214,0,0,0,4.719,1.365,7.964,7.964,0,0,0,5.666-2.071q2.58-2.348,2.73-7h-5.17A6.511,6.511,0,0,1,264.193,279.039Z" transform="translate(-140.06 -251.356)" fill="#fff"/><path d="M250.508,252.762c.05.059.109.109.159.168a12.287,12.287,0,0,0,2.73-2.994c.232-.364.455-.728.642-1.1a11.149,11.149,0,0,1-.546-2.7q-.232-2.416-.232-7.345t.232-7.345a8.552,8.552,0,0,1,.91-3.518,2.676,2.676,0,0,1,2.439-1.247,2.645,2.645,0,0,1,2.444,1.2,6.12,6.12,0,0,1,.783,3.186h5.156q-.137-4.646-2.626-6.9a8.078,8.078,0,0,0-5.757-2.121,7.906,7.906,0,0,0-6.371,2.812,9.493,9.493,0,0,0-1.957,4.719,65.872,65.872,0,0,0-.455,9.229,65.978,65.978,0,0,0,.455,9.234,9.53,9.53,0,0,0,1.993,4.724Z" transform="translate(-135.172 -222.038)" fill="#fff"/><path d="M217.962,227.458a12.328,12.328,0,0,1,3.709-1.652V222.83H216.51v5.73A13.347,13.347,0,0,1,217.962,227.458Z" transform="translate(-117.98 -222.47)" fill="#fff"/><path d="M219.077,235.225a12.666,12.666,0,0,0-2.567,2.2V261.67h5.161V233.91A12.988,12.988,0,0,0,219.077,235.225Z" transform="translate(-117.98 -228.507)" fill="#fff"/></g><path d="M148.055,80.138A18.981,18.981,0,0,1,129.09,61.182v-40.8a18.97,18.97,0,0,1,37.939,0v40.8a18.985,18.985,0,0,1-18.97,18.956Z" transform="translate(-128.442 -0.786)" fill="url(#a)"/><path d="M147.268,1.291A18.315,18.315,0,0,1,165.612,19.6V60.4A18.311,18.311,0,0,1,147.268,78.7h0A18.315,18.315,0,0,1,128.946,60.4V19.6A18.315,18.315,0,0,1,147.263,1.291h0m0-1.291h0A19.629,19.629,0,0,0,127.65,19.6V60.4a19.617,19.617,0,0,0,39.233,0l0-40.8A19.629,19.629,0,0,0,147.268,0Z" transform="translate(-127.65)" fill="#fff"/><rect width="36.647" height="77.412" rx="18.324" transform="translate(1.296 1.292)" fill="url(#b)"/><path d="M167.215,66.05H153.826L151.72,83l16.337-10.2Z" transform="translate(-140.887 -36.35)" fill="url(#c)"/><path d="M166.76,81.05l-16.332,10.2h0l-1.058,8.515,18.3-11.422Z" transform="translate(-139.595 -44.606)" fill="url(#d)"/><path d="M165.089,109.9a8.848,8.848,0,0,1,1.8-5.369l-.9-7.268-18.2,11.373a.477.477,0,0,1-.095.05l-.963,7.768a1.062,1.062,0,0,0,0,.207H146.7c-.122.968-.243,1.94-.36,2.849h22.4l-.329-2.669a8.888,8.888,0,0,1-3.326-6.94Z" transform="translate(-137.929 -53.53)" fill="url(#e)"/><path d="M153.339,96.454a16.157,16.157,0,0,0-6.49,1.715,24.072,24.072,0,0,0-3.15,1.967c-.45.32-.855.648-1.283.972l-.05.041a28.645,28.645,0,0,1-6.494,3.821h0l-.122.054h0a15.652,15.652,0,0,1-5.171,1.233v7.223a18.322,18.322,0,0,0,35.846,5.266h0a18.236,18.236,0,0,0,.8-5.266V102.543a16.368,16.368,0,0,0-12.714-6.1h-1.121" transform="translate(-129.261 -53.092)" fill="url(#f)"/><path d="M168.193,96.454a16.157,16.157,0,0,0-6.49,1.715c-.333.167-.792.414-1.35.752a15.519,15.519,0,0,0-2.763,2.916h0l.945-.716a23.782,23.782,0,0,1,3.173-1.967,16.157,16.157,0,0,1,6.49-1.715h1.148a16.531,16.531,0,0,1,12.691,6.373l.022,9.582V102.543a16.368,16.368,0,0,0-12.714-6.1h-1.121" transform="translate(-144.116 -53.075)" fill="url(#g)"/><path d="M156.4,56.761h13.38l-.945-7.6-11.773,2.277-.662,5.324Z" transform="translate(-143.461 -27.052)" fill="url(#h)"/><path d="M161.541,145.05a9.338,9.338,0,0,0-6.809-5.041,16.712,16.712,0,0,0-3.888-.45,18.064,18.064,0,0,0-3.047.243c-1.1.153-2.286.378-3.74.711l-1.611.387a30.706,30.706,0,0,1-6.2,1.107h-1.125a22.873,22.873,0,0,1-3.245-.216h-.054a18.326,18.326,0,0,0,17.736,13.717h0a18.245,18.245,0,0,0,12.84-5.252,9,9,0,0,0-.846-5.189Z" transform="translate(-129.943 -76.806)" fill="url(#i)"/><path d="M141.031,108.533c2.646-4.757,4.924-6.386,4.951-6.4a.86.86,0,0,0,.248-1.139,27,27,0,0,0-2.57,1.647c-.45.32-.855.648-1.283.972l-.049.041a28.646,28.646,0,0,1-6.494,3.821h0l-.122.054h0c-.284.122-.572.234-.86.338h0a15.576,15.576,0,0,1-4.311.9v7.219c0,.567.027,1.125.077,1.683a.9.9,0,0,0,.261-.059,16.991,16.991,0,0,0,2.075-.99l.126-.067.5-.311.261-.162.275-.185.225-.158A22.583,22.583,0,0,0,141.031,108.533Z" transform="translate(-129.239 -55.579)" fill="url(#j)"/><path d="M154.7,141.819a15.98,15.98,0,0,0-3.69-.41,16.7,16.7,0,0,0-2.894.234c-1.062.144-2.214.365-3.627.689q-.783.18-1.566.378a30.869,30.869,0,0,1-6.134,1.067c-.374,0-.747.023-1.116.023a22.639,22.639,0,0,1-3.222-.216h-.063a.383.383,0,0,0-.077,0,18.326,18.326,0,0,0,17.516,12.943h0a18.263,18.263,0,0,0,11.913-4.4,8.579,8.579,0,0,0-7.039-10.306Z" transform="translate(-130.213 -77.823)" fill="url(#k)"/><path d="M132.492,117.04h0l.081-.045h0a5.207,5.207,0,0,0,.45-.288c.086-.05.167-.1.248-.158l.261-.176.221-.153a21.6,21.6,0,0,0,6.436-6.913c2.759-4.951,5.131-6.638,5.2-6.688-.527.32-1.139.72-1.827,1.215-.45.32-.855.648-1.283.972l-.049.036a24.331,24.331,0,0,1-2.048,1.472h0a30.155,30.155,0,0,1-4.005,2.165h-.032l-.131.054-.081.036-.077.031-.126.054h0l-.122.054h0c-.284.122-.567.23-.86.333h-.063c-.279.1-.567.194-.855.279a15.936,15.936,0,0,1-3.393.594v6.931c0,.374,0,.747.036,1.116A15.545,15.545,0,0,0,132.492,117.04Z" transform="translate(-129.184 -56.475)" fill="url(#l)"/><path d="M142.361,104.137l-.05.04c-.684.545-1.377,1.035-2.048,1.467h0a29.97,29.97,0,0,1-4.005,2.16h-.032l-.131.059-.081.036-.077.032-.126.054h0l-.122.054h0c-.284.122-.567.234-.86.338h-.063c-.279.1-.567.189-.855.275a15.392,15.392,0,0,1-3.393.594v8.087a15.8,15.8,0,0,0,2.016-.959h0l.081-.045h0c.09-.054.252-.149.45-.293l.248-.153.261-.176.221-.153a21.6,21.6,0,0,0,6.436-6.913c2.759-4.951,5.131-6.638,5.2-6.692-.527.32-1.139.72-1.827,1.215C143.216,103.485,142.788,103.813,142.361,104.137Z" transform="translate(-129.228 -56.106)" fill="url(#m)"/><path d="M160.784,146.882a8.591,8.591,0,0,1,.477,6.026,18.25,18.25,0,0,1-11.341,3.933h0a18.326,18.326,0,0,1-17.439-12.7,24.685,24.685,0,0,0,4.415.2,41.523,41.523,0,0,0,7.786-1.458c1.193-.275,2.385-.518,3.6-.68h0a17,17,0,0,1,6.427.167,8.271,8.271,0,0,1,6.076,4.478Z" transform="translate(-130.306 -78.137)" fill="url(#n)"/><path d="M160.784,146.882v-.027a8.271,8.271,0,0,0-6.076-4.478,17,17,0,0,0-6.427-.167h0c-1.2.162-2.394.405-3.6.68a42.263,42.263,0,0,1-7.786,1.458,24.684,24.684,0,0,1-4.415-.2c.122.378.257.747.4,1.116a27.055,27.055,0,0,0,3.263.068,41.546,41.546,0,0,0,7.781-1.458c1.193-.275,2.39-.518,3.6-.68h0a17,17,0,0,1,6.427.167,8.228,8.228,0,0,1,6.071,4.5v.027a8.353,8.353,0,0,1,.576,5.536c.221-.158.45-.32.653-.491A8.592,8.592,0,0,0,160.784,146.882Z" transform="translate(-130.306 -78.137)" fill="url(#o)"/><path d="M160.784,146.882v-.027a8.271,8.271,0,0,0-6.076-4.478,17,17,0,0,0-6.427-.167h0c-1.2.162-2.394.405-3.6.68a42.263,42.263,0,0,1-7.786,1.458,24.684,24.684,0,0,1-4.415-.2.653.653,0,0,0,.054.158,24.753,24.753,0,0,0,4.226.18,41.524,41.524,0,0,0,7.786-1.458c1.193-.275,2.39-.518,3.6-.68h0a17,17,0,0,1,6.427.167,8.243,8.243,0,0,1,6.076,4.5.094.094,0,0,0,0,.027,8.58,8.58,0,0,1,.482,5.986l.126-.094A8.618,8.618,0,0,0,160.784,146.882Z" transform="translate(-130.306 -78.137)" fill="url(#p)"/><path d="M143.66,103.165c-.45.32-.855.648-1.283.972l-.049.04c-.207.167-.414.315-.621.45a32.379,32.379,0,0,0-2.286,3.564A21.548,21.548,0,0,1,133,115.123c-.072.054-.149.1-.225.153l-.261.176-.243.158c-.221.14-.387.239-.477.288h0l-.081.045h0c-.378.216-.77.414-1.166.594v.8a15.8,15.8,0,0,0,2-.959h0l.081-.045h0c.09-.054.252-.149.45-.293l.248-.153.261-.176.221-.153a21.6,21.6,0,0,0,6.436-6.913c2.759-4.951,5.131-6.638,5.2-6.692C144.961,102.27,144.349,102.67,143.66,103.165Z" transform="translate(-129.245 -56.106)" fill="url(#q)"/><path d="M140.323,108.372a21.6,21.6,0,0,1-6.436,6.913l-.221.153-.261.176-.248.158c-.221.14-.383.234-.45.288h0l-.081.045h0a15.824,15.824,0,0,1-2.007.963v-.531h0v.8a15.8,15.8,0,0,0,1.971-.959h0l.081-.045h0c.09-.054.252-.149.45-.293l.248-.153.261-.176.221-.153a21.6,21.6,0,0,0,6.436-6.913c2.759-4.951,5.131-6.638,5.2-6.692-.329.2-.693.45-1.089.7A25.987,25.987,0,0,0,140.323,108.372Z" transform="translate(-129.283 -56.106)" fill="url(#r)"/><path d="M158.384,30.927l-.774,6.215-.45,3.528h12.678l-.6-4.748h-4.726a1.031,1.031,0,0,1-.4-.131,1.044,1.044,0,0,1-.32-.239,1.1,1.1,0,0,1-.311-.527,1.075,1.075,0,0,1-.054-.207V33.7a1.035,1.035,0,0,1,.054-.2,1.022,1.022,0,0,1,.617-.729,1.04,1.04,0,0,1,.41-.081h4.334l-.229-1.8a1.427,1.427,0,0,0-.45-2.732,4.568,4.568,0,0,0-4.329-3.069h-.68a4.573,4.573,0,0,0-4.334,3.042h-.076a1.422,1.422,0,0,0-.378,2.795Z" transform="translate(-143.879 -13.798)" fill="url(#s)"/><path d="M167.74,54.22H153.487a1.427,1.427,0,0,0-1.427,1.427,1.409,1.409,0,0,0,.45,1.044h16.2a1.409,1.409,0,0,0,.45-1.044,1.427,1.427,0,0,0-1.422-1.427Z" transform="translate(-141.074 -29.836)" fill="url(#t)"/><path d="M168.193,96.454a16.157,16.157,0,0,0-6.49,1.715c-.333.167-.792.414-1.35.752a15.519,15.519,0,0,0-2.763,2.916h0l.945-.716a23.782,23.782,0,0,1,3.173-1.967,16.157,16.157,0,0,1,6.49-1.715h1.148a16.531,16.531,0,0,1,12.691,6.373l.022,9.582V102.543a16.368,16.368,0,0,0-12.714-6.1h-1.121" transform="translate(-144.116 -53.075)" fill="url(#g)"/><path d="M169.351,98.62H168.2a16.157,16.157,0,0,0-6.49,1.715,23.782,23.782,0,0,0-3.173,1.967l-.338.257c-.2.239-.4.491-.6.765h0q.45-.365.945-.716a24.443,24.443,0,0,1,3.173-1.971,16.148,16.148,0,0,1,6.49-1.71h1.148a16.531,16.531,0,0,1,12.691,6.373l.023,9.586v-.311l-.023-9.582A16.589,16.589,0,0,0,169.351,98.62Z" transform="translate(-144.121 -54.274)" fill="url(#v)"/><path d="M182.059,104.85h.041v-.189a16.525,16.525,0,0,0-12.624-6.3h-1.148a16.157,16.157,0,0,0-6.49,1.715,24.274,24.274,0,0,0-3.173,1.967l-.945.716h0a17.265,17.265,0,0,1,1.629-1.895,17.1,17.1,0,0,0-1.719,1.985h0l.945-.716a23.781,23.781,0,0,1,3.173-1.967,16.157,16.157,0,0,1,6.49-1.715h1.148A16.676,16.676,0,0,1,182.059,104.85Z" transform="translate(-144.138 -54.126)" fill="url(#w)"/></g></g></svg>