<svg width="13" height="14" viewBox="0 0 13 14" fill="none" xmlns="http://www.w3.org/2000/svg">
<path d="M11.4609 5.32417C11.7671 5.4991 12.0218 5.75164 12.1987 6.05659C12.3757 6.36155 12.4688 6.70791 12.4688 7.0605C12.4688 7.41309 12.3757 7.75945 12.1987 8.0644C12.0218 8.36936 11.7671 8.6219 11.4609 8.79683L3.49219 13.351C3.18807 13.5247 2.8434 13.6154 2.49316 13.6142C2.14293 13.613 1.79903 13.52 1.49609 13.3442C1.19316 13.1684 0.941932 12.9162 0.76709 12.6127C0.592248 12.3093 0.500113 11.9654 0.5 11.6152V2.50825C0.500113 2.15801 0.592248 1.81368 0.76709 1.5102C0.941932 1.20673 1.19316 0.954528 1.49609 0.778759C1.79903 0.60299 2.14293 0.509923 2.49316 0.508739C2.8434 0.507556 3.18807 0.598206 3.49219 0.771923L11.4609 5.32417Z" fill="white"/>
</svg>
