<?xml version="1.0" encoding="utf-8"?><svg xmlns="http://www.w3.org/2000/svg" width="24" height="24" viewBox="0 0 24 24"><path d="M3.515 20.486a12 12 0 0116.97-16.972 11.971 11.971 0 011.482 15.148.938.938 0 01-1.559-1.042 10.122 10.122 0 001.673-4.683h-.847a.937.937 0 110-1.875h.847a10.143 10.143 0 00-9.19-9.148v.8a.938.938 0 01-1.875 0v-.8a10.141 10.141 0 00-9.1 9.139h.753a.937.937 0 110 1.875h-.75a10.143 10.143 0 009.1 9.141v-.8a.938.938 0 011.875 0v.8a10.09 10.09 0 004.347-1.42.938.938 0 01.972 1.6 12 12 0 01-14.698-1.763zm7.785-2.223a1.65 1.65 0 01-.083-.227l-.967-3.13a3.599 3.599 0 00-.051-.14c-.046.04-.086.072-.124.109-.3.293-.587.59-.886.88a.746.746 0 11-1.049-1.064c.318-.323.646-.652.986-1l-.783-.239c-.855-.261-1.71-.516-2.564-.781a.693.693 0 01-.526-.648.7.7 0 01.387-.708 1.221 1.221 0 01.242-.094l3.109-.969c.046-.016.09-.034.13-.049-.226-.236-.448-.469-.671-.7-.109-.112-.225-.215-.332-.328a.744.744 0 011.036-1.066c.327.306.641.626.959.94.022.021.045.04.085.074.03-.088.058-.16.081-.233l.946-3.04a.751.751 0 01.976-.558.8.8 0 01.5.577q.466 1.512.939 3.022c.02.063.042.127.089.261.085-.107.139-.187.206-.258.256-.261.513-.524.779-.778a.743.743 0 111.06 1.042c-.281.3-.576.583-.868.872a1.142 1.142 0 01-.168.115l.04.052 2.181.685 1.082.336a.756.756 0 01.006 1.489L15 13.661c-.057.018-.114.042-.19.07l.95.97a.728.728 0 01.217.7.716.716 0 01-.516.559.7.7 0 01-.738-.187c-.283-.278-.558-.568-.833-.853a2.138 2.138 0 01-.14-.192c-.112.349-.2.634-.29.919-.261.836-.519 1.672-.784 2.5a.713.713 0 01-.658.522h-.057a.733.733 0 01-.661-.406zm.645-9.676l-.057.176-.6 1.92a.834.834 0 01-.614.612c-.21.057-.416.126-.623.19l-1.5.47c.081.029.121.045.161.056.646.2 1.292.4 1.939.588a.863.863 0 01.637.635c.19.649.4 1.293.6 1.94.02.061.042.12.082.227.232-.746.455-1.438.662-2.133a.858.858 0 01.621-.629c.643-.19 1.281-.4 1.92-.594.06-.018.12-.04.227-.077-.112-.038-.167-.059-.226-.077l-1.918-.6a.856.856 0 01-.624-.626c-.143-.494-.3-.984-.454-1.476-.063-.2-.13-.406-.2-.61z" fill="#31458e"/></svg>