<svg xmlns="http://www.w3.org/2000/svg" xmlns:xlink="http://www.w3.org/1999/xlink"><symbol id="icon-basket" viewBox="0 0 18 15">
<path fill-rule="evenodd" clip-rule="evenodd" d="M17.526 3.088H17.527L15.052 8.588C14.93 8.859 14.666 9.052 14.355 9.073L7.227 9.54799L7.639 10.724H15.4C16.311 10.724 17.05 11.463 17.05 12.375C17.05 13.286 16.311 14.025 15.4 14.025C14.489 14.025 13.75 13.286 13.75 12.375H6.05C6.05 13.286 5.311 14.025 4.4 14.025C3.489 14.025 2.75 13.286 2.75 12.375C2.75 11.463 3.489 10.724 4.4 10.724H5.891L2.715 1.65H0.824998C0.369 1.65 0 1.28 0 0.824998C0 0.369 0.369 0 0.824998 0H3.3C3.66 0 3.963 0.232 4.076 0.552998L4.079 0.551998L4.559 1.925H16.775C17.231 1.925 17.6 2.294 17.6 2.75C17.6 2.87 17.573 2.984 17.526 3.088ZM5.137 3.575L6.662 7.932L13.751 7.459L15.499 3.575H5.137Z"/>
</symbol><symbol id="icon-facebook" viewBox="0 0 264 512">
    <path d="M76.7 512V283H0V192H76.7V120.3C76.7 42.4 124.3 0 193.8 0C227.1 0 255.7 2.5 264 3.6V85H215.8C178 85 170.7 103 170.7 129.3V192H256L244.3 283H170.7V512"/>
</symbol><symbol id="icon-instagram" viewBox="0 0 26 26">
<path fill-rule="evenodd" clip-rule="evenodd" d="M22.7001 25.8H3.50005C1.73305 25.8 0.300049 24.367 0.300049 22.599V3.40001C0.300049 1.63201 1.73305 0.199005 3.50005 0.199005H22.7001C24.4671 0.199005 25.9 1.63201 25.9 3.40001V22.599C25.9 24.367 24.4671 25.8 22.7001 25.8ZM13.1 8.039C11.104 8.039 9.38905 9.221 8.60205 10.919H8.59705C8.58905 10.937 8.58305 10.956 8.57505 10.974C8.52805 11.079 8.48705 11.187 8.44705 11.295C8.42805 11.348 8.40705 11.399 8.39005 11.451C8.35305 11.563 8.32305 11.676 8.29505 11.791C8.28105 11.844 8.26505 11.897 8.25305 11.951C8.22705 12.072 8.20905 12.195 8.19205 12.319C8.18505 12.369 8.17505 12.418 8.16905 12.469C8.15105 12.643 8.14005 12.82 8.14005 13C8.14005 15.739 10.361 17.959 13.1 17.959C15.839 17.959 18.06 15.739 18.06 13C18.06 12.82 18.049 12.643 18.031 12.469C18.025 12.418 18.015 12.369 18.008 12.319C17.991 12.195 17.9731 12.072 17.9471 11.951C17.9351 11.897 17.9191 11.844 17.9051 11.791C17.8771 11.676 17.847 11.563 17.81 11.451C17.793 11.399 17.772 11.348 17.753 11.295C17.713 11.187 17.672 11.079 17.625 10.974C17.617 10.956 17.6111 10.937 17.6031 10.919H17.598C16.811 9.221 15.096 8.039 13.1 8.039ZM23.0201 4.35901C23.0201 3.65201 22.447 3.08001 21.74 3.08001H19.18C18.473 3.08001 17.9 3.65201 17.9 4.35901V6.92001C17.9 7.62701 18.473 8.2 19.18 8.2H21.74C22.447 8.2 23.0201 7.62701 23.0201 6.92001V4.35901ZM23.0201 10.919H20.66C20.842 11.582 20.9401 12.28 20.9401 13C20.9401 17.33 17.43 20.839 13.1 20.839C8.77005 20.839 5.26005 17.33 5.26005 13C5.26005 12.28 5.35805 11.582 5.54005 10.919H3.18005V21.639C3.18005 22.347 3.75305 22.92 4.46005 22.92H21.74C22.447 22.92 23.0201 22.347 23.0201 21.639V10.919Z"/>
</symbol><symbol id="icon-loupe" viewBox="0 0 18 18">
<path fill-rule="evenodd" clip-rule="evenodd" d="M17.117 14.783C17.415 15.081 17.6 15.494 17.6 15.95C17.6 16.861 16.861 17.6 15.95 17.6C15.494 17.6 15.082 17.415 14.783 17.116L9.94699 12.281C8.965 12.861 7.823 13.2 6.6 13.2C2.955 13.2 0 10.245 0 6.6C0 2.955 2.955 0 6.6 0C10.245 0 13.2 2.955 13.2 6.6C13.2 7.823 12.861 8.965 12.281 9.94699L17.117 14.783ZM6.6 1.649C3.866 1.649 1.65 3.866 1.65 6.6C1.65 9.334 3.866 11.55 6.6 11.55C9.334 11.55 11.55 9.334 11.55 6.6C11.55 3.866 9.334 1.649 6.6 1.649Z"/>
</symbol><symbol id="icon-pinterest" viewBox="0 0 20 26">
<path fill-rule="evenodd" clip-rule="evenodd" d="M8.15212 16.6592C7.94312 17.4922 7.73213 18.3652 7.51413 19.2192C7.29913 20.0612 7.10913 20.9152 6.79613 21.6892C6.27713 22.9702 5.61813 24.2082 4.75313 25.2102C4.17813 25.8772 4.30013 25.6112 4.12713 25.5752C3.99513 25.5472 3.98413 25.4182 3.95813 25.2302C3.81713 24.2122 3.91313 23.0352 3.96513 21.8912C4.02513 20.5872 4.29913 19.5032 4.55413 18.4202C5.03813 16.3562 5.50013 14.3332 5.98913 12.2562C6.02113 12.1182 6.10913 11.8902 6.07913 11.8112C5.85713 11.2342 5.71313 10.7162 5.65013 10.1102C5.57713 9.41522 5.63313 8.76622 5.78913 8.16722C6.06613 7.10922 6.70213 6.17222 7.68313 5.82922C8.30713 5.61322 8.99813 5.71122 9.41813 5.96122C9.85013 6.22022 10.1471 6.62822 10.2851 7.20722C10.4331 7.82222 10.3241 8.55822 10.2051 9.09822C9.93812 10.3172 9.58712 11.2322 9.26812 12.4082C9.11012 12.9912 8.93112 13.5902 9.07912 14.2202C9.21512 14.7982 9.51612 15.1962 9.92612 15.4952C10.3521 15.8052 10.8561 15.9742 11.5511 15.9502C12.7791 15.9072 13.6321 15.1222 14.2021 14.3822C15.1151 13.1972 15.6671 11.5982 15.8771 9.69622C15.9441 9.08222 15.9941 8.37722 15.9471 7.68222C15.8591 6.39822 15.4581 5.36522 14.8201 4.56522C14.2141 3.80222 13.3541 3.19622 12.3081 2.85422C11.2711 2.51622 9.83612 2.40322 8.56112 2.62122C6.24312 3.01822 4.60913 4.33522 3.64613 6.15422C3.14213 7.10622 2.80913 8.20122 2.80913 9.56422C2.80913 10.6152 3.06813 11.4292 3.48713 12.0642C3.62013 12.2652 3.81513 12.4312 3.94513 12.6612C4.13013 12.9872 3.91713 13.4722 3.82613 13.8252C3.71613 14.2502 3.70413 14.8372 3.20813 14.8472C3.00213 14.8512 2.74413 14.7012 2.57013 14.6042C1.26513 13.8832 0.473125 12.5712 0.148125 10.8702C-0.0498747 9.83622 -0.0488747 8.63122 0.148125 7.63222C0.338125 6.66522 0.692125 5.77422 1.08513 5.05122C1.89913 3.54822 3.09213 2.34622 4.54413 1.48822C5.66013 0.828219 6.91913 0.365219 8.45113 0.142219C8.95913 0.0682191 9.48512 0.0372191 10.0561 0.0102191C11.7241 -0.0677809 13.2401 0.310219 14.3821 0.820219C15.5871 1.35922 16.5491 2.07622 17.3621 2.96622C18.2001 3.88122 18.8101 4.94522 19.1961 6.27522C19.3981 6.96722 19.5941 7.70722 19.5941 8.56222C19.5941 9.42022 19.4131 10.1752 19.2861 10.9302C18.8121 13.7582 17.4671 16.0712 15.4481 17.3882C14.9591 17.7062 14.3671 18.0012 13.6941 18.1972C13.0271 18.3912 12.2661 18.5372 11.4511 18.4802C10.6601 18.4262 10.0121 18.2112 9.46812 17.9032C8.92812 17.5982 8.47412 17.2242 8.15212 16.6592Z"/>
</symbol><symbol id="icon-twitter" viewBox="0 0 512 416">
<path d="M459.37 103.634C459.695 108.182 459.695 112.731 459.695 117.279C459.695 255.999 354.112 415.837 161.137 415.837C101.685 415.837 46.457 398.618 0 368.731C8.447 369.705 16.568 370.03 25.34 370.03C74.395 370.03 119.553 353.462 155.614 325.198C109.482 324.223 70.822 294.01 57.502 252.426C64 253.4 70.497 254.05 77.32 254.05C86.741 254.05 96.163 252.75 104.934 250.477C56.853 240.73 20.791 198.497 20.791 147.492V146.193C34.76 153.99 51.005 158.863 68.222 159.512C39.958 140.669 21.441 108.507 21.441 72.121C21.441 52.629 26.638 34.761 35.735 19.167C87.39 82.842 165.035 124.425 252.1 128.974C250.476 121.177 249.501 113.056 249.501 104.934C249.501 47.106 296.283 0 354.435 0C384.648 0 411.937 12.67 431.105 33.137C454.82 28.589 477.561 19.817 497.704 7.797C489.906 32.163 473.338 52.63 451.572 65.624C472.689 63.351 493.156 57.502 511.998 49.381C497.706 70.172 479.837 88.689 459.37 103.634Z"/>
</symbol></svg>