<svg xmlns="http://www.w3.org/2000/svg" xmlns:xlink="http://www.w3.org/1999/xlink" width="161.643" height="60.057" viewBox="0 0 161.643 60.057"><defs><linearGradient id="a" x1="0.5" y1="-0.507" x2="0.5" y2="0.545" gradientUnits="objectBoundingBox"><stop offset="0" stop-color="#bfd7ee"/><stop offset="0.19" stop-color="#d1e2f2"/><stop offset="0.46" stop-color="#e5edf6"/><stop offset="0.73" stop-color="#f1f4f9"/><stop offset="1" stop-color="#f5f6fa"/></linearGradient><linearGradient id="b" y1="-0.507" y2="0.545" xlink:href="#a"/><linearGradient id="c" y1="0.5" x2="1" y2="0.5" gradientUnits="objectBoundingBox"><stop offset="0.01" stop-color="#cacaca"/><stop offset="1" stop-color="#fff"/></linearGradient><linearGradient id="d" y1="0.5" x2="1" y2="0.5" gradientUnits="objectBoundingBox"><stop offset="0.01" stop-color="#9b0006"/><stop offset="1" stop-color="#d30020"/></linearGradient><linearGradient id="e" x1="0" y1="0.5" x2="1" y2="0.5" xlink:href="#c"/><linearGradient id="f" x1="0.038" y1="0.808" x2="0.917" y2="0.278" gradientUnits="objectBoundingBox"><stop offset="0" stop-color="#304d95"/><stop offset="0.26" stop-color="#5170af"/><stop offset="0.58" stop-color="#7497cc"/><stop offset="0.84" stop-color="#8aaede"/><stop offset="1" stop-color="#92b7e4"/></linearGradient><linearGradient id="g" x1="0.183" y1="0.377" x2="1.221" y2="0.595" gradientUnits="objectBoundingBox"><stop offset="0" stop-color="#fff" stop-opacity="0"/><stop offset="0.07" stop-color="#fff" stop-opacity="0.059"/><stop offset="0.47" stop-color="#fff" stop-opacity="0.4"/><stop offset="0.6" stop-color="#fff" stop-opacity="0.29"/><stop offset="0.87" stop-color="#fff" stop-opacity="0.078"/><stop offset="1" stop-color="#fff" stop-opacity="0"/></linearGradient><linearGradient id="h" x1="0" y1="0.5" y2="0.5" xlink:href="#d"/><linearGradient id="i" x1="0.5" y1="-0.506" x2="0.5" y2="0.546" gradientUnits="objectBoundingBox"><stop offset="0" stop-color="#273f85" stop-opacity="0.4"/><stop offset="0.44" stop-color="#273f85" stop-opacity="0.259"/><stop offset="1" stop-color="#273f85" stop-opacity="0.102"/></linearGradient><linearGradient id="j" x1="-0.104" y1="0.898" x2="0.903" y2="-0.043" gradientUnits="objectBoundingBox"><stop offset="0" stop-color="#273f85" stop-opacity="0.4"/><stop offset="0.56" stop-color="#273f85" stop-opacity="0.161"/><stop offset="1" stop-color="#273f85" stop-opacity="0"/></linearGradient><linearGradient id="k" x1="0.5" y1="-0.507" x2="0.5" y2="0.546" xlink:href="#i"/><linearGradient id="l" x1="-0.087" y1="0.894" x2="0.678" y2="0.148" gradientUnits="objectBoundingBox"><stop offset="0" stop-color="#273f85" stop-opacity="0.4"/><stop offset="0.44" stop-color="#273f85" stop-opacity="0.239"/><stop offset="1" stop-color="#273f85" stop-opacity="0"/></linearGradient><linearGradient id="m" x1="-0.006" y1="0.726" x2="0.905" y2="0.322" gradientUnits="objectBoundingBox"><stop offset="0" stop-color="#7b9fd7"/><stop offset="0.27" stop-color="#8db0e0"/><stop offset="0.72" stop-color="#a4c6eb"/><stop offset="1" stop-color="#adceef"/></linearGradient><linearGradient id="n" x1="0.124" y1="0.5" x2="1.026" y2="0.5" gradientUnits="objectBoundingBox"><stop offset="0" stop-color="#6787c8"/><stop offset="0.4" stop-color="#90b3e0"/><stop offset="0.62" stop-color="#a1c5ea"/><stop offset="0.81" stop-color="#9fc3e9"/><stop offset="0.87" stop-color="#99bce5"/><stop offset="0.92" stop-color="#8db1de"/><stop offset="0.96" stop-color="#7da0d4"/><stop offset="0.99" stop-color="#688ac8"/><stop offset="1" stop-color="#6385c5"/></linearGradient><linearGradient id="o" y1="0.499" x2="1" y2="0.499" gradientUnits="objectBoundingBox"><stop offset="0" stop-color="#fff" stop-opacity="0.102"/><stop offset="0.03" stop-color="#fff" stop-opacity="0.11"/><stop offset="0.68" stop-color="#fff" stop-opacity="0.322"/><stop offset="1" stop-color="#fff" stop-opacity="0.4"/></linearGradient><linearGradient id="p" y1="0.499" x2="1" y2="0.499" gradientUnits="objectBoundingBox"><stop offset="0" stop-color="#fff" stop-opacity="0.102"/><stop offset="0.38" stop-color="#fff" stop-opacity="0.31"/><stop offset="0.8" stop-color="#fff" stop-opacity="0.522"/><stop offset="1" stop-color="#fff" stop-opacity="0.6"/></linearGradient><linearGradient id="q" x1="0.042" y1="0.96" x2="0.762" y2="0.283" gradientUnits="objectBoundingBox"><stop offset="0" stop-color="#fff" stop-opacity="0.4"/><stop offset="0.25" stop-color="#fff" stop-opacity="0.322"/><stop offset="0.76" stop-color="#fff" stop-opacity="0.11"/><stop offset="1" stop-color="#fff" stop-opacity="0"/></linearGradient><linearGradient id="r" x1="0.051" y1="0.97" x2="0.772" y2="0.293" gradientUnits="objectBoundingBox"><stop offset="0" stop-color="#fff" stop-opacity="0.302"/><stop offset="0.45" stop-color="#fff" stop-opacity="0.22"/><stop offset="1" stop-color="#fff" stop-opacity="0.102"/></linearGradient><linearGradient id="s" x1="0.001" y1="0.5" x2="1.001" y2="0.5" xlink:href="#d"/><linearGradient id="t" x1="0" y1="0.501" x2="1" y2="0.501" xlink:href="#c"/><linearGradient id="v" x1="0.27" y1="0.5" x2="1.27" y2="0.5" gradientUnits="objectBoundingBox"><stop offset="0" stop-color="#273f85" stop-opacity="0"/><stop offset="0.51" stop-color="#273f85" stop-opacity="0.4"/><stop offset="0.51" stop-color="#273f85" stop-opacity="0.388"/><stop offset="0.61" stop-color="#273f85" stop-opacity="0.22"/><stop offset="0.72" stop-color="#273f85" stop-opacity="0.102"/><stop offset="0.84" stop-color="#273f85" stop-opacity="0.02"/><stop offset="1" stop-color="#273f85" stop-opacity="0"/></linearGradient><linearGradient id="w" x1="-0.001" y1="0.503" x2="0.999" y2="0.503" gradientUnits="objectBoundingBox"><stop offset="0.41" stop-color="#fff" stop-opacity="0"/><stop offset="0.44" stop-color="#fff" stop-opacity="0.078"/><stop offset="0.7" stop-color="#fff" stop-opacity="0.6"/><stop offset="0.84" stop-color="#fff" stop-opacity="0.29"/><stop offset="0.95" stop-color="#fff" stop-opacity="0.078"/><stop offset="1" stop-color="#fff" stop-opacity="0"/></linearGradient></defs><g transform="translate(-68.711 -0.43)"><g transform="translate(68.711 0.43)"><g transform="translate(44.635 17.554)"><path d="M9.945,234.67l-.164-.082H9.8a18.791,18.791,0,0,0-3.56-1.568h0c-.14,0-.284.02-.434.02H3.871v-6.679H5.808a2.673,2.673,0,0,1,2.159.762,4.005,4.005,0,0,1,.639,2.559,4.281,4.281,0,0,1-.557,2.419,16.4,16.4,0,0,1,3.136,1.479,6.024,6.024,0,0,0,1.291-4.141,10.7,10.7,0,0,0-.342-3.075,4.718,4.718,0,0,0-1.2-1.971q-1.486-1.524-4.783-1.524H0v13.447H5.736a2.657,2.657,0,0,1,2.248.9,4.885,4.885,0,0,1,.683,2.938,4.962,4.962,0,0,1-.683,2.972,2.7,2.7,0,0,1-2.265.864H3.871v-6.129H0v9.621H6.119a6.606,6.606,0,0,0,4.838-1.554,4.759,4.759,0,0,0,1.244-2.108,12.839,12.839,0,0,0,.342-3.389,7.835,7.835,0,0,0-1.025-4.441A6,6,0,0,0,9.945,234.67Z" transform="translate(0 -222.586)" fill="#fff"/><path d="M117.478,222.87H113.72l-6.05,24.6h4.079l.024-.126c.164-.765,1.206-4.745,5.087-4.745l-.735-3.492h-2.648l2.108-10.3,1.63,7.97,1.2,5.808h0l.243,1.186h0l.758,3.683h4.045Z" transform="translate(-70.886 -222.586)" fill="#fff"/><path d="M176.681,245.06a9.909,9.909,0,0,0-1.951.195v16.836H178.6V245.248A9.863,9.863,0,0,0,176.681,245.06Z" transform="translate(-115.035 -237.195)" fill="#fff"/><path d="M162.69,222.87v3.492h4.1v2.754a9.888,9.888,0,0,1,3.871,0v-2.733h4.161V222.87Z" transform="translate(-107.109 -222.586)" fill="#fff"/><path d="M68.272,227.68a6.659,6.659,0,0,0-1.486-3.509,6.473,6.473,0,0,0-9.566,0,5.545,5.545,0,0,0-.485.683,9.856,9.856,0,0,1,3.235,2.026,2.317,2.317,0,0,1,.2-.4,2.012,2.012,0,0,1,1.835-.936,2.05,2.05,0,0,1,1.865.936,6.191,6.191,0,0,1,.683,2.641q.164,1.818.157,5.514t-.157,5.514a6.107,6.107,0,0,1-.683,2.644,2.05,2.05,0,0,1-1.865.933,2.016,2.016,0,0,1-1.835-.933q-.861-1.367-.864-8.158a47.621,47.621,0,0,1,.29-6.013,9.945,9.945,0,0,0-3.478-2.391,9.054,9.054,0,0,0-.342,1.49,70.461,70.461,0,0,0,0,13.86,7.154,7.154,0,0,0,1.469,3.543,6.48,6.48,0,0,0,9.566,0,6.659,6.659,0,0,0,1.455-3.515,53.949,53.949,0,0,0,.311-6.966A55.6,55.6,0,0,0,68.272,227.68Z" transform="translate(-36.5 -222.053)" fill="#fff"/><path d="M316.786,227.68a6.6,6.6,0,0,0-1.486-3.509,6.473,6.473,0,0,0-9.566,0,5.566,5.566,0,0,0-.489.683,9.807,9.807,0,0,1,1.865.95,9.982,9.982,0,0,1,1.367,1.076,2.076,2.076,0,0,1,.191-.4,2,2,0,0,1,1.831-.936,2.05,2.05,0,0,1,1.865.936,6.326,6.326,0,0,1,.683,2.641c.113,1.209.154,3.051.154,5.514s-.051,4.3-.154,5.514a6.206,6.206,0,0,1-.683,2.644,2.05,2.05,0,0,1-1.865.933,2.005,2.005,0,0,1-1.831-.933q-.864-1.367-.864-8.158a47.749,47.749,0,0,1,.287-6.013,9.863,9.863,0,0,0-3.478-2.391,8.722,8.722,0,0,0-.342,1.49,70.465,70.465,0,0,0,0,13.86,7.124,7.124,0,0,0,1.469,3.543,6.48,6.48,0,0,0,9.566,0,6.6,6.6,0,0,0,1.486-3.509,53.94,53.94,0,0,0,.311-6.966A54.583,54.583,0,0,0,316.786,227.68Z" transform="translate(-200.096 -222.053)" fill="#fff"/><path d="M262.407,278.242a1.981,1.981,0,0,1-1.835.9,2.344,2.344,0,0,1-1.107-.249c-.072.116-.14.232-.215.342a9.146,9.146,0,0,1-2.221,2.391,6.167,6.167,0,0,0,3.543,1.025,5.979,5.979,0,0,0,4.253-1.554,7.08,7.08,0,0,0,2.05-5.254H263A4.888,4.888,0,0,1,262.407,278.242Z" transform="translate(-169.219 -257.459)" fill="#fff"/><path d="M249.9,245.1c.038.044.082.082.12.126a9.224,9.224,0,0,0,2.05-2.248c.174-.273.342-.547.482-.823a8.371,8.371,0,0,1-.41-2.026q-.174-1.814-.174-5.514t.174-5.514a6.42,6.42,0,0,1,.683-2.641,2.009,2.009,0,0,1,1.831-.936,1.986,1.986,0,0,1,1.835.9,4.594,4.594,0,0,1,.588,2.391h3.871a6.948,6.948,0,0,0-1.971-5.183,6.064,6.064,0,0,0-4.322-1.592,5.935,5.935,0,0,0-4.783,2.111A7.127,7.127,0,0,0,248.4,227.7a70.465,70.465,0,0,0,0,13.86A7.154,7.154,0,0,0,249.9,245.1Z" transform="translate(-163.313 -222.038)" fill="#fff"/><path d="M217.6,226.3a9.255,9.255,0,0,1,2.784-1.24V222.83H216.51v4.3A10.017,10.017,0,0,1,217.6,226.3Z" transform="translate(-142.542 -222.559)" fill="#fff"/><path d="M218.437,234.9a9.508,9.508,0,0,0-1.927,1.65v18.2h3.874V233.91A9.751,9.751,0,0,0,218.437,234.9Z" transform="translate(-142.542 -229.854)" fill="#fff"/></g><path d="M143.327,60.517A14.249,14.249,0,0,1,129.09,46.287V15.661a14.241,14.241,0,0,1,28.481,0V46.287a14.253,14.253,0,0,1-14.241,14.231Z" transform="translate(-128.603 -0.947)" fill="url(#a)"/><path d="M142.377.969a13.75,13.75,0,0,1,13.771,13.745V45.34a13.746,13.746,0,0,1-13.771,13.745h0A13.749,13.749,0,0,1,128.623,45.34V14.714A13.75,13.75,0,0,1,142.374.969h0m0-.969h0A14.736,14.736,0,0,0,127.65,14.714V45.34a14.726,14.726,0,0,0,29.453,0l0-30.626A14.736,14.736,0,0,0,142.377,0Z" transform="translate(-127.65)" fill="#fff"/><rect width="27.512" height="58.114" rx="13.756" transform="translate(0.973 0.97)" fill="url(#b)"/><path d="M163.352,66.05H153.3L151.72,78.777l12.264-7.659Z" transform="translate(-143.588 -43.754)" fill="url(#c)"/><path d="M162.425,81.05l-12.261,7.659h0L149.37,95.1l13.737-8.575Z" transform="translate(-142.032 -53.691)" fill="url(#d)"/><path d="M160.415,106.747a6.642,6.642,0,0,1,1.351-4.031l-.676-5.456L147.425,105.8a.358.358,0,0,1-.071.037l-.723,5.831a.8.8,0,0,0,0,.155h-.02c-.091.726-.182,1.456-.27,2.139h16.819l-.247-2A6.673,6.673,0,0,1,160.415,106.747Z" transform="translate(-140.025 -64.431)" fill="url(#e)"/><path d="M147.665,96.45a12.129,12.129,0,0,0-4.872,1.287,18.072,18.072,0,0,0-2.365,1.476c-.338.24-.642.487-.963.73l-.037.03a21.5,21.5,0,0,1-4.875,2.868h0l-.091.041h0a11.75,11.75,0,0,1-3.882.926v5.423a13.754,13.754,0,0,0,26.91,3.953h0a13.69,13.69,0,0,0,.6-3.953v-8.21a12.288,12.288,0,0,0-9.545-4.581H147.7" transform="translate(-129.59 -63.898)" fill="url(#f)"/><path d="M165.55,96.45a12.129,12.129,0,0,0-4.872,1.287c-.25.125-.595.311-1.014.564a11.65,11.65,0,0,0-2.074,2.189h0l.71-.537a17.853,17.853,0,0,1,2.382-1.476,12.129,12.129,0,0,1,4.872-1.287h.862a12.41,12.41,0,0,1,9.528,4.784l.017,7.193v-8.146a12.288,12.288,0,0,0-9.544-4.581h-.841" transform="translate(-147.475 -63.885)" fill="url(#g)"/><path d="M156.4,54.866h10.045l-.71-5.706L156.9,50.87l-.5,4Z" transform="translate(-146.687 -32.563)" fill="url(#h)"/><path d="M154.132,143.682a7.01,7.01,0,0,0-5.112-3.784,12.545,12.545,0,0,0-2.919-.338,13.562,13.562,0,0,0-2.287.182c-.824.115-1.716.284-2.808.534l-1.21.291a23.052,23.052,0,0,1-4.656.831H134.3a17.17,17.17,0,0,1-2.436-.162h-.041a13.758,13.758,0,0,0,13.315,10.3h0a13.7,13.7,0,0,0,9.639-3.943,6.757,6.757,0,0,0-.635-3.9Z" transform="translate(-130.411 -92.449)" fill="url(#i)"/><path d="M138.415,106.653a15.161,15.161,0,0,1,3.716-4.808.645.645,0,0,0,.186-.855,20.272,20.272,0,0,0-1.929,1.237c-.338.24-.642.487-.963.73l-.037.03a21.5,21.5,0,0,1-4.875,2.868h0l-.091.041h0c-.213.091-.429.176-.645.253h0a11.693,11.693,0,0,1-3.237.676v5.419c0,.426.02.845.057,1.264a.675.675,0,0,0,.2-.044,12.756,12.756,0,0,0,1.558-.743l.095-.051.378-.233.2-.122.206-.139.169-.118A16.953,16.953,0,0,0,138.415,106.653Z" transform="translate(-129.564 -66.899)" fill="url(#j)"/><path d="M149.118,141.717a12,12,0,0,0-2.77-.307,12.534,12.534,0,0,0-2.172.176c-.8.108-1.662.274-2.723.517q-.588.135-1.176.284a23.174,23.174,0,0,1-4.6.8c-.28,0-.561.017-.838.017a17,17,0,0,1-2.419-.162h-.047a.288.288,0,0,0-.057,0,13.758,13.758,0,0,0,13.149,9.717h0a13.71,13.71,0,0,0,8.943-3.3,6.441,6.441,0,0,0-5.284-7.737Z" transform="translate(-130.736 -93.674)" fill="url(#k)"/><path d="M131.981,113.445h0l.061-.034h0a3.906,3.906,0,0,0,.338-.216c.064-.037.125-.078.186-.118l.2-.132.166-.115a16.217,16.217,0,0,0,4.831-5.189c2.071-3.716,3.852-4.983,3.906-5.021-.4.24-.855.541-1.372.912-.338.24-.642.487-.963.73l-.037.027a18.265,18.265,0,0,1-1.537,1.1h0a22.637,22.637,0,0,1-3.007,1.625h-.024l-.1.041-.061.027-.057.024-.095.041h0l-.091.041h0c-.213.091-.426.172-.645.25h-.047c-.209.074-.426.145-.642.209a11.964,11.964,0,0,1-2.547.446v5.2c0,.28,0,.561.027.838A11.669,11.669,0,0,0,131.981,113.445Z" transform="translate(-129.497 -67.978)" fill="url(#l)"/><path d="M139.409,103.592l-.037.03c-.514.409-1.034.777-1.537,1.1h0a22.5,22.5,0,0,1-3.007,1.622H134.8l-.1.044-.061.027-.057.024-.095.041h0l-.091.041h0c-.213.091-.426.176-.645.253h-.047c-.209.074-.426.142-.642.206a11.555,11.555,0,0,1-2.547.446V113.5a11.859,11.859,0,0,0,1.514-.72h0l.061-.034h0c.068-.041.189-.111.338-.22l.186-.115.2-.132.166-.115a16.217,16.217,0,0,0,4.831-5.189,15.7,15.7,0,0,1,3.906-5.024c-.4.24-.855.541-1.372.912C140.051,103.1,139.73,103.349,139.409,103.592Z" transform="translate(-129.55 -67.535)" fill="url(#m)"/><path d="M153.728,145.66a6.45,6.45,0,0,1,.358,4.524,13.7,13.7,0,0,1-8.514,2.953h0a13.758,13.758,0,0,1-13.092-9.531,18.531,18.531,0,0,0,3.314.152,31.171,31.171,0,0,0,5.845-1.095c.9-.206,1.791-.389,2.7-.51h0a12.761,12.761,0,0,1,4.825.125,6.209,6.209,0,0,1,4.561,3.362Z" transform="translate(-130.848 -94.053)" fill="url(#n)"/><path d="M153.728,145.66v-.02a6.209,6.209,0,0,0-4.561-3.362,12.761,12.761,0,0,0-4.825-.125h0c-.9.122-1.8.3-2.7.51a31.729,31.729,0,0,1-5.845,1.095,18.532,18.532,0,0,1-3.314-.152c.091.284.193.561.3.838a20.309,20.309,0,0,0,2.449.051,31.189,31.189,0,0,0,5.842-1.095c.9-.206,1.794-.389,2.7-.51h0a12.761,12.761,0,0,1,4.825.125,6.177,6.177,0,0,1,4.558,3.379v.02a6.271,6.271,0,0,1,.432,4.156c.166-.118.338-.24.49-.368A6.45,6.45,0,0,0,153.728,145.66Z" transform="translate(-130.848 -94.053)" fill="url(#o)"/><path d="M153.728,145.66v-.02a6.209,6.209,0,0,0-4.561-3.362,12.761,12.761,0,0,0-4.825-.125h0c-.9.122-1.8.3-2.7.51a31.729,31.729,0,0,1-5.845,1.095,18.532,18.532,0,0,1-3.314-.152.49.49,0,0,0,.041.118,18.582,18.582,0,0,0,3.172.135,31.174,31.174,0,0,0,5.845-1.095c.9-.206,1.794-.389,2.7-.51h0a12.761,12.761,0,0,1,4.825.125,6.188,6.188,0,0,1,4.561,3.379.07.07,0,0,0,0,.02,6.441,6.441,0,0,1,.362,4.494l.095-.071A6.469,6.469,0,0,0,153.728,145.66Z" transform="translate(-130.848 -94.053)" fill="url(#p)"/><path d="M140.392,102.862c-.338.24-.642.487-.963.73l-.037.03c-.155.125-.311.237-.466.338a24.3,24.3,0,0,0-1.716,2.676,16.177,16.177,0,0,1-4.818,5.2c-.054.041-.112.078-.169.115l-.2.132-.182.118c-.166.1-.291.179-.358.216h0l-.061.034h0c-.284.162-.578.311-.875.446v.6a11.858,11.858,0,0,0,1.5-.72h0l.061-.034h0c.068-.041.189-.111.338-.22l.186-.115.2-.132.166-.115a16.217,16.217,0,0,0,4.831-5.189,15.7,15.7,0,0,1,3.906-5.024C141.368,102.19,140.909,102.491,140.392,102.862Z" transform="translate(-129.57 -67.535)" fill="url(#q)"/><path d="M137.9,106.771a16.217,16.217,0,0,1-4.831,5.189l-.166.115-.2.132-.186.118c-.166.1-.287.176-.338.216h0l-.061.034h0a11.879,11.879,0,0,1-1.507.723v-.4h0v.6a11.859,11.859,0,0,0,1.48-.72h0l.061-.034h0c.068-.041.189-.111.338-.22l.186-.115.2-.132.166-.115a16.217,16.217,0,0,0,4.831-5.189,15.7,15.7,0,0,1,3.906-5.024c-.247.152-.52.338-.818.527A19.509,19.509,0,0,0,137.9,106.771Z" transform="translate(-129.617 -67.535)" fill="url(#r)"/><path d="M158.079,29.472l-.581,4.666-.338,2.649h9.517l-.449-3.564h-3.548a.774.774,0,0,1-.3-.1.784.784,0,0,1-.24-.179.828.828,0,0,1-.233-.4.807.807,0,0,1-.041-.155v-.838a.776.776,0,0,1,.041-.152.767.767,0,0,1,.463-.547.781.781,0,0,1,.307-.061h3.254l-.172-1.351a1.071,1.071,0,0,0-.338-2.051,3.429,3.429,0,0,0-3.25-2.3h-.51a3.433,3.433,0,0,0-3.254,2.284h-.057a1.068,1.068,0,0,0-.284,2.1Z" transform="translate(-147.19 -16.613)" fill="url(#s)"/><path d="M163.831,54.22h-10.7a1.071,1.071,0,0,0-1.071,1.071,1.057,1.057,0,0,0,.338.784h12.163a1.057,1.057,0,0,0,.338-.784,1.071,1.071,0,0,0-1.068-1.071Z" transform="translate(-143.813 -35.914)" fill="url(#t)"/><path d="M165.55,96.45a12.129,12.129,0,0,0-4.872,1.287c-.25.125-.595.311-1.014.564a11.65,11.65,0,0,0-2.074,2.189h0l.71-.537a17.853,17.853,0,0,1,2.382-1.476,12.129,12.129,0,0,1,4.872-1.287h.862a12.41,12.41,0,0,1,9.528,4.784l.017,7.193v-8.146a12.288,12.288,0,0,0-9.544-4.581h-.841" transform="translate(-147.475 -63.885)" fill="url(#g)"/><path d="M166.421,98.62h-.862a12.129,12.129,0,0,0-4.872,1.287,17.852,17.852,0,0,0-2.382,1.476l-.253.193c-.149.179-.3.368-.453.574h0q.338-.274.71-.537a18.349,18.349,0,0,1,2.382-1.48,12.123,12.123,0,0,1,4.872-1.284h.862a12.41,12.41,0,0,1,9.528,4.784l.017,7.2V110.6l-.017-7.193A12.454,12.454,0,0,0,166.421,98.62Z" transform="translate(-147.481 -65.329)" fill="url(#v)"/><path d="M175.969,103.232H176v-.142a12.406,12.406,0,0,0-9.477-4.73h-.862a12.129,12.129,0,0,0-4.872,1.287,18.221,18.221,0,0,0-2.382,1.476l-.71.537h0a12.959,12.959,0,0,1,1.223-1.422,12.839,12.839,0,0,0-1.291,1.49h0l.71-.537a17.853,17.853,0,0,1,2.382-1.476,12.129,12.129,0,0,1,4.872-1.287h.862A12.519,12.519,0,0,1,175.969,103.232Z" transform="translate(-147.501 -65.153)" fill="url(#w)"/></g></g></svg>